<svg id="illustration-1" xmlns="http://www.w3.org/2000/svg" xmlns:xlink="http://www.w3.org/1999/xlink"
  viewBox="0 0 560 337" shape-rendering="geometricPrecision" text-rendering="geometricPrecision">
  <style>
    <![CDATA[
    #illustration-1-s-circle1_to {
      animation: illustration-1-s-circle1_to__to 3000ms linear infinite normal forwards
    }

    @keyframes illustration-1-s-circle1_to__to {
      0% {
        transform: translate(234.5px, 49.595718px)
      }

      33.333333% {
        transform: translate(378.935px, 58px)
      }

      50% {
        transform: translate(453.563812px, 49.595718px)
      }

      66.666667% {
        transform: translate(509.155212px, 175.5px)
      }

      83.333333% {
        transform: translate(512.156586px, 49.595718px)
      }

      100% {
        transform: translate(501.5px, 80.5px)
      }
    }

    #illustration-1-s-g3_tr {
      animation: illustration-1-s-g3_tr__tr 3000ms linear infinite normal forwards
    }

    @keyframes illustration-1-s-g3_tr__tr {
      0% {
        transform: translate(446.999725px, 254.499847px) rotate(0deg);
        animation-timing-function: cubic-bezier(0.445, 0.05, 0.55, 0.95)
      }

      100% {
        transform: translate(446.999725px, 254.499847px) rotate(180deg)
      }
    }

    #illustration-1-s-g4_tr {
      animation: illustration-1-s-g4_tr__tr 3000ms linear infinite normal forwards
    }

    @keyframes illustration-1-s-g4_tr__tr {
      0% {
        transform: translate(176.486679px, 165.084381px) rotate(0deg)
      }

      100% {
        transform: translate(176.486679px, 165.084381px) rotate(180deg)
      }
    }

    #illustration-1-s-path22_tr {
      animation: illustration-1-s-path22_tr__tr 3000ms linear infinite normal forwards
    }

    @keyframes illustration-1-s-path22_tr__tr {
      0% {
        transform: translate(308.169347px, 125.322223px) rotate(90deg)
      }

      100% {
        transform: translate(308.169347px, 125.322223px) rotate(0deg)
      }
    }

    #illustration-1-s-path23_to {
      animation: illustration-1-s-path23_to__to 3000ms linear infinite normal forwards
    }

    @keyframes illustration-1-s-path23_to__to {
      0% {
        transform: translate(398.5px, 159.983766px)
      }

      33.333333% {
        transform: translate(422.433px, 125.472001px)
      }

      66.666667% {
        transform: translate(426.672px, 130.817178px)
      }

      100% {
        transform: translate(423.268px, 124.500001px)
      }
    }

    #illustration-1-s-path105 {
      animation: illustration-1-s-path105_c_o 3000ms linear infinite normal forwards
    }

    @keyframes illustration-1-s-path105_c_o {
      0% {
        opacity: 0
      }

      33.333333% {
        opacity: 0.25
      }

      66.666667% {
        opacity: 0.75
      }

      100% {
        opacity: 1
      }
    }

    #illustration-1-s-rect1 {
      animation: illustration-1-s-rect1__sz 3000ms linear infinite normal forwards
    }

    @keyframes illustration-1-s-rect1__sz {
      0% {
        width: 93px;
        height: 86px;
        animation-timing-function: cubic-bezier(0.39, 0.575, 0.565, 1)
      }

      16.666667% {
        width: 56.834188px;
        height: 52.560318px
      }

      50% {
        width: 50.127173px;
        height: 46.358201px
      }

      83.333333% {
        width: 80.203476px;
        height: 74.173121px
      }

      100% {
        width: 80.203476px;
        height: 31.536191px
      }
    }

    #illustration-1-s-rect7 {
      animation: illustration-1-s-rect7_c_o 3000ms linear infinite normal forwards
    }

    @keyframes illustration-1-s-rect7_c_o {
      0% {
        opacity: 0.5
      }

      33.333333% {
        opacity: 0.5
      }

      66.666667% {
        opacity: 0.25
      }

      100% {
        opacity: 0
      }
    }

    #illustration-1-s-circle2_to {
      animation: illustration-1-s-circle2_to__to 3000ms linear infinite normal forwards
    }

    @keyframes illustration-1-s-circle2_to__to {
      0% {
        transform: translate(32.753459px, 140.684128px);
        animation-timing-function: cubic-bezier(0.445, 0.05, 0.55, 0.95)
      }

      13.333333% {
        transform: translate(58.921384px, 75.365128px);
        animation-timing-function: cubic-bezier(0.445, 0.05, 0.55, 0.95)
      }

      33.333333% {
        transform: translate(49.939487px, 152.037247px);
        animation-timing-function: cubic-bezier(0.445, 0.05, 0.55, 0.95)
      }

      50% {
        transform: translate(40px, 86.365128px);
        animation-timing-function: cubic-bezier(0.445, 0.05, 0.55, 0.95)
      }

      66.666667% {
        transform: translate(25px, 183.365128px);
        animation-timing-function: cubic-bezier(0.445, 0.05, 0.55, 0.95)
      }

      83.333333% {
        transform: translate(25px, 44.70202px);
        animation-timing-function: cubic-bezier(0.445, 0.05, 0.55, 0.95)
      }

      100% {
        transform: translate(31.563934px, 140px)
      }
    }

    #illustration-1-u-copy-of-circle_to {
      animation: illustration-1-u-copy-of-circle_to__to 3000ms linear infinite normal forwards
    }

    @keyframes illustration-1-u-copy-of-circle_to__to {
      0% {
        transform: translate(32.753459px, 140.684128px);
        animation-timing-function: cubic-bezier(0.445, 0.05, 0.55, 0.95)
      }

      6.333333% {
        transform: translate(58.921384px, 75.365128px);
        animation-timing-function: cubic-bezier(0.445, 0.05, 0.55, 0.95)
      }

      33.333333% {
        transform: translate(49.939487px, 152.037247px);
        animation-timing-function: cubic-bezier(0.445, 0.05, 0.55, 0.95)
      }

      50% {
        transform: translate(40px, 86.365128px);
        animation-timing-function: cubic-bezier(0.445, 0.05, 0.55, 0.95)
      }

      66.666667% {
        transform: translate(25px, 183.365128px);
        animation-timing-function: cubic-bezier(0.445, 0.05, 0.55, 0.95)
      }

      83.333333% {
        transform: translate(25px, 44.70202px);
        animation-timing-function: cubic-bezier(0.445, 0.05, 0.55, 0.95)
      }

      100% {
        transform: translate(31.563934px, 140px)
      }
    }
    ]]>
  </style>
  <g id="illustration-1-s-g1" clip-path="url(#illustration-1-u-clip0_1_292)">
    <g id="illustration-1-s-g2">
      <g id="illustration-1-s-circle1_to" transform="translate(234.5,49.595718)">
        <circle id="illustration-1-s-circle1" r="44.5" transform="translate(0,0)" fill="#ccece6" />
      </g>
      <path id="illustration-1-s-path1"
        d="M391.533,45.1727c-24.766-43.09644-79.779-57.9563-122.875-33.1905-13.661,7.85-24.484,18.7391-32.108,31.3243-2.886,4.7649-9.584,6.0545-14.036,2.7058-35.408-26.6319-85.93-23.6813-117.972,8.6832C79.4538,80.0367,72.5112,116.526,83.6336,148.038c1.6029,4.542-.6185,9.688-5.0225,11.637C47.0327,173.651,25,205.26,25,242.015c0,49.706,40.2944,90,90,90h177.598l174.598,4.471C488.290581,332.015,526.589552,300,528.37051,249C532.162756,140.404219,433.5,150,391.533,45.1727Z"
        transform="matrix(1 0 0.034921 1-5.8756 0)" opacity="0.8" fill="#d3f0eb" />
      <g id="illustration-1-s-g3_tr" transform="translate(446.999725,254.499847) rotate(0)">
        <g id="illustration-1-s-g3" transform="translate(-446.999725,-254.499847)" opacity="0.45">
          <path id="illustration-1-s-path2"
            d="M442.428,223.15c.145-.671.732-1.15,1.41-1.15h5.99c.712,0,1.317.526,1.426,1.24l1.415,9.269c.136.889-.541,1.69-1.427,1.689l-9.41-.01c-.921-.001-1.605-.866-1.408-1.779l2.004-9.259Z"
            fill="#018196" />
          <path id="illustration-1-s-path3"
            d="M422.253,235.211c-.368-.578-.289-1.337.188-1.826l4.219-4.315c.501-.513,1.296-.578,1.872-.154l7.481,5.508c.717.528.801,1.58.176,2.218l-6.634,6.772c-.649.663-1.736.547-2.236-.239l-5.066-7.964Z"
            fill="#018196" />
          <path id="illustration-1-s-path4"
            d="M416.105,257.834c-.659-.161-1.119-.766-1.105-1.453l.122-6.078c.015-.722.546-1.326,1.251-1.422l9.161-1.247c.878-.12,1.654.584,1.635,1.483l-.202,9.547c-.02.934-.885,1.611-1.781,1.392l-9.081-2.222Z"
            fill="#018196" />
          <path id="illustration-1-s-path5"
            d="M447.641,285.864c-.16.703-.8,1.183-1.509,1.132l-5.863-.423c-.726-.052-1.3-.646-1.339-1.384l-.604-11.656c-.047-.907.721-1.638,1.61-1.532l8.967,1.071c.853.102,1.43.933,1.237,1.783l-2.499,11.009Z"
            fill="#018196" />
          <path id="illustration-1-s-path6"
            d="M467.559,277.992c.247.647.013,1.382-.561,1.759l-5.007,3.289c-.602.395-1.398.282-1.87-.266l-7.244-8.404c-.584-.677-.433-1.724.318-2.203l8.272-5.281c.768-.49,1.786-.149,2.114.709l3.978,10.397Z"
            fill="#018196" />
          <path id="illustration-1-s-path7"
            d="M478.039,254.333c.646.232,1.041.893.947,1.581l-.819,6.005c-.097.716-.695,1.252-1.407,1.264l-10.639.168c-.901.014-1.594-.803-1.446-1.705l1.597-9.724c.148-.899,1.06-1.444,1.906-1.139l9.861,3.55Z"
            fill="#018196" />
          <path id="illustration-1-s-path8"
            d="M468.685,231.197c.624-.27,1.348-.064,1.742.496l3.478,4.948c.414.588.343,1.395-.167,1.899l-6.95,6.875c-.609.602-1.596.543-2.13-.129l-6.104-7.675c-.601-.756-.324-1.886.557-2.267l9.574-4.147Z"
            fill="#018196" />
          <path id="illustration-1-s-path9"
            d="M446.533,275.921c12.054,0,21.826-9.917,21.826-22.149s-9.772-22.149-21.826-22.149-21.825,9.917-21.825,22.149c0,3.724.905,7.234,2.506,10.314c2.016,3.881,5.134,7.081,8.931,9.17c3.089,1.7,6.628,2.665,10.388,2.665Zm0-8.42c7.472,0,13.529-6.147,13.529-13.729s-6.057-13.729-13.529-13.729c-7.471,0-13.528,6.147-13.528,13.729s6.057,13.729,13.528,13.729Z"
            clip-rule="evenodd" fill="#018196" fill-rule="evenodd" />
          <path id="illustration-1-s-path10"
            d="M436.145,273.256c-3.797-2.089-6.915-5.289-8.931-9.17-.003.006-.007.011-.01.016l-5.542,9.767c-.353.623-.21,1.414.34,1.867l4.644,3.835c.529.438,1.288.438,1.819.002l7.68-6.317Z"
            fill="#018196" />
        </g>
      </g>
      <g id="illustration-1-s-g4_tr" transform="translate(176.486679,165.084381) rotate(0)">
        <g id="illustration-1-s-g4" transform="translate(-166.013283,-178.774612)">
          <path id="illustration-1-s-path11"
            d="M160.03,93.1419C160.433,91.3072,162.058,90,163.937,90h16.604c1.973,0,3.651,1.4381,3.953,3.3874l3.924,25.3196c.376,2.426-1.502,4.615-3.957,4.612l-26.083-.028c-2.554-.002-4.451-2.364-3.903-4.858l5.555-25.2911Z"
            fill="#53c8b5" />
          <path id="illustration-1-s-path12"
            d="M104.105,126.086c-1.019-1.578-.802-3.653.521-4.987l11.694-11.788c1.39-1.4,3.592-1.579,5.189-.42l20.739,15.046c1.987,1.441,2.218,4.316.487,6.057l-18.389,18.498c-1.8,1.811-4.813,1.494-6.198-.651l-14.043-21.755Z"
            fill="#53c8b5" />
          <path id="illustration-1-s-path13"
            d="M87.0626,187.882c-1.8262-.441-3.1-2.092-3.0618-3.97l.3383-16.602c.0401-1.972,1.5121-3.621,3.4672-3.883L113.2,160.02c2.434-.327,4.584,1.595,4.531,4.05l-.559,26.077c-.055,2.553-2.454,4.402-4.936,3.803l-25.1734-6.068Z"
            fill="#53c8b5" />
          <path id="illustration-1-s-path14"
            d="M174.479,264.447c-.442,1.92-2.217,3.232-4.182,3.092l-16.252-1.156c-2.014-.143-3.605-1.764-3.711-3.78l-1.676-31.841c-.13-2.475,2-4.472,4.462-4.182l24.857,2.924c2.365.278,3.965,2.549,3.43,4.871l-6.928,30.072Z"
            fill="#53c8b5" />
          <path id="illustration-1-u-copy-of-path"
            d="M174.479,264.447c-.442,1.92-2.217,3.232-4.182,3.092l-16.252-1.156c-2.014-.143-3.605-1.764-3.711-3.78l-1.676-31.841c-.13-2.475,2-4.472,4.462-4.182l24.857,2.924c2.365.278,3.965,2.549,3.43,4.871l-6.928,30.072Z"
            transform="matrix(.707107-.707107 0.707107 0.707107-81.323457 169.396536)" fill="#53c8b5" />
          <path id="illustration-1-s-path15"
            d="M232.814,115.121c1.727-.737,3.735-.173,4.826,1.356l9.643,13.515c1.146,1.607.949,3.81-.464,5.187l-19.264,18.78c-1.688,1.645-4.425,1.482-5.905-.353L204.73,132.64c-1.666-2.064-.897-5.149,1.543-6.191l26.541-11.328Z"
            fill="#53c8b5" />
          <path id="illustration-1-u-copy-of-path2"
            d="M232.814,115.121c1.727-.737,3.735-.173,4.826,1.356l9.643,13.515c1.146,1.607.949,3.81-.464,5.187l-19.264,18.78c-1.688,1.645-4.425,1.482-5.905-.353L204.73,132.64c-1.666-2.064-.897-5.149,1.543-6.191l26.541-11.328Z"
            transform="matrix(.777146 0.62932-.62932 0.777146 148.547065-62.40347)" fill="#53c8b5" />
          <path id="illustration-1-s-path16"
            d="M171.409,237.286c33.413,0,60.5-27.087,60.5-60.5s-27.087-60.5-60.5-60.5-60.5,27.087-60.5,60.5c0,10.173,2.511,19.76,6.947,28.174c5.588,10.6,14.231,19.339,24.758,25.047c8.562,4.642,18.371,7.279,28.795,7.279Zm0-23c20.711,0,37.5-16.789,37.5-37.5s-16.789-37.5-37.5-37.5-37.5,16.789-37.5,37.5s16.789,37.5,37.5,37.5Z"
            clip-rule="evenodd" fill="#53c8b5" fill-rule="evenodd" />
          <path id="illustration-1-s-path17"
            d="M142.614,230.007c-10.527-5.708-19.17-14.447-24.758-25.047-.009.014-.017.029-.026.044l-15.364,26.679c-.979,1.7-.58,3.86.942,5.098l12.873,10.476c1.468,1.195,3.573,1.197,5.043.005l21.29-17.255Z"
            fill="#53c8b5" />
        </g>
      </g>
      <path id="illustration-1-s-path18"
        d="M229.691,242.943c.686,1.768.037,3.775-1.556,4.806l-13.878,8.982c-1.669,1.08-3.876.771-5.185-.725l-20.079-22.955c-1.619-1.851-1.2-4.71.881-6.02l22.931-14.424c2.128-1.339,4.949-.406,5.859,1.938l11.027,28.398Z"
        fill="#53c8b5" />
      <path id="illustration-1-s-path19"
        d="M258.742,178.318c1.789.634,2.886,2.438,2.625,4.318l-2.27,16.404c-.27,1.955-1.926,3.42-3.9,3.451l-29.491.46c-2.497.039-4.419-2.194-4.008-4.657l4.427-26.561c.409-2.455,2.937-3.944,5.282-3.112l27.335,9.697Z"
        fill="#53c8b5" />
      <path id="illustration-1-s-path20"
        d="M315.5,180c31.756,0,57.5-24.848,57.5-55.5C373,93.8482,347.256,69,315.5,69s-57.5,24.8482-57.5,55.5c0,30.652,25.744,55.5,57.5,55.5Zm-.5-11.583c25.405,0,46-19.878,46-44.4c0-24.5211-20.595-44.3996-46-44.3996s-46,19.8785-46,44.3996c0,24.522,20.595,44.4,46,44.4Z"
        clip-rule="evenodd" fill="#036f86" fill-rule="evenodd" />
      <path id="illustration-1-s-path21"
        d="M372.5,124.5c0,30.359-25.503,55-57,55s-57-24.641-57-55s25.503-55,57-55s57,24.6409,57,55ZM315,168.917c25.664,0,46.5-20.085,46.5-44.9c0-24.8137-20.836-44.8996-46.5-44.8996s-46.5,20.0859-46.5,44.8996c0,24.815,20.836,44.9,46.5,44.9Z"
        fill="none" stroke="#000" stroke-opacity="0.05" />
      <g id="illustration-1-s-path22_tr" transform="translate(308.169347,125.322223) rotate(90)">
        <path id="illustration-1-s-path22"
          d="M315.588,94.0976c1.104.0469,1.959.9485,1.91,2.0136l-1.296,28.3568l17.994-14.944c.837-.696,2.1-.604,2.82.204s.626,2.027-.212,2.722l-21.5,17.857c-.604.502-1.46.609-2.178.273-.717-.336-1.159-1.052-1.124-1.822l1.5-32.817c.049-1.0651.983-1.8904,2.086-1.8434Z"
          transform="translate(-311.416847,-121.148738)" clip-rule="evenodd" fill="#036f86" fill-rule="evenodd"
          stroke="#000" stroke-width="0.5" stroke-opacity="0.05" stroke-linecap="round" stroke-linejoin="round" />
      </g>
      <g id="illustration-1-s-path23_to" transform="translate(398.5,159.983766)">
        <path id="illustration-1-s-path23"
          d="M469,102.5c0,24.577-19.923,44.5-44.5,44.5-1.248,0-2.485-.051-3.707-.152l-17.421,28.148L368,153.105l17.759-28.695C382.093,117.942,380,110.466,380,102.5C380,77.9233,399.923,58,424.5,58c3.348,0,6.61.3698,9.747,1.0707c1.293.2889,1.866,1.7698,1.17,2.897L428.078,73.852c-.593.9606-1.864,1.2401-2.805.6172l-8.65-5.7222c-.623-.4126-1.463-.2414-1.876.3822s-.241,1.4636.382,1.8761l8.825,5.8379c.901.596,1.165,1.7997.598,2.7188l-1.142,1.8484c-.593.9606-1.863,1.2401-2.805.6171l-7.982-5.2805c-.623-.4125-1.463-.2414-1.876.3822s-.241,1.4636.382,1.8761l8.157,5.3962c.901.5961,1.166,1.7998.598,2.7189l-.264.4284c-.594.9607-1.864,1.2401-2.805.6172l-8.192-5.419c-.623-.4125-1.463-.2414-1.876.3822s-.241,1.4636.382,1.8761l8.366,5.5347c.901.596,1.166,1.7997.599,2.7189l-7.779,12.5971c-.584.944-1.825,1.233-2.765.643L383.586,92.7195c-.633-.3974-1.469-.206-1.866.4274-.398.6334-.207,1.469.427,1.8664l23.68,14.8567c.004.002.005.006.003.01-.003.003-.002.008.002.01l11.856,7.322c6.911,4.268,15.974,2.125,20.243-4.787l2.003-3.245c.594-.96,1.864-1.24,2.805-.617l6.525,4.317c.624.412,1.464.241,1.876-.383.413-.623.242-1.463-.382-1.876l-6.699-4.432c-.901-.596-1.166-1.799-.599-2.719l.265-.428c.593-.961,1.864-1.24,2.805-.617l6.734,4.455c.624.412,1.464.241,1.876-.383.413-.623.242-1.463-.382-1.876l-6.909-4.57c-.901-.5962-1.165-1.7999-.598-2.7191l1.142-1.8483c.593-.9606,1.863-1.2401,2.805-.6172l6.066,4.0132c.624.4126,1.464.2415,1.876-.3821.413-.6237.242-1.4637-.382-1.8762l-6.241-4.1289c-.901-.596-1.166-1.7997-.598-2.7188l6.872-11.1283c.744-1.2053,2.468-1.2728,3.231-.0792C466.44,85.477,469,93.6895,469,102.5Z"
          transform="translate(-418.5,-116.498001)" fill="#53c8b5" />
      </g>
      <path id="illustration-1-s-path24"
        d="M413.556,262h-203.636c-3.927,0-7.606,1.922-9.849,5.145L172,307.477c-1.191,1.712-1.138,3.997.132,5.651.906,1.18,2.309,1.872,3.797,1.872h274.322c1.343,0,2.553-.811,3.064-2.053.427-1.039.299-2.224-.342-3.147l-29.555-42.636c-2.242-3.235-5.927-5.164-9.862-5.164Z"
        fill="#0f697f" />
      <path id="illustration-1-s-path25"
        d="M410.389,255h-198.792c-4.108,0-7.931,2.102-10.132,5.57l-27.629,43.536c-1.112,1.753-1.061,4.002.129,5.702.962,1.374,2.534,2.192,4.211,2.192h268.336c1.497,0,2.836-.928,3.362-2.329.394-1.053.273-2.229-.327-3.179l-29.015-45.904c-2.199-3.479-6.027-5.588-10.143-5.588Z"
        fill="#018196" />
      <path id="illustration-1-s-path26" d="M211.238,289l2.061-7.031h-9.453L201,289h10.238Z" fill="#02697f" />
      <path id="illustration-1-s-path27" d="M216.047,272.594h-8.406l-3.795,9.375h9.453l2.748-9.375Z" fill="#02697f" />
      <path id="illustration-1-s-path28" d="M218.246,265.094h-7.57l-3.035,7.5h8.406l2.199-7.5Z" fill="#02697f" />
      <path id="illustration-1-s-path29" d="M225.048,272.594h9.51l2.448-7.5h-9.665l-2.293,7.5Z" fill="#02697f" />
      <path id="illustration-1-s-path30" d="M218.246,265.094l-2.199,7.5h9.001l2.293-7.5h-9.095Z" fill="#02697f" />
      <path id="illustration-1-s-path31" d="M238.995,259h-25.852l-2.467,6.094h7.57h9.095h9.665L238.995,259Z"
        fill="#02697f" />
      <path id="illustration-1-s-path32" d="M248.222,259h-9.227l-1.989,6.094h9.342L248.222,259Z" fill="#02697f" />
      <path id="illustration-1-s-path33" d="M257.449,259h-9.227l-1.874,6.094h9.227L257.449,259Z" fill="#02697f" />
      <path id="illustration-1-s-path34" d="M265.591,259h-8.142l-1.874,6.094h8.362L265.591,259Z" fill="#02697f" />
      <path id="illustration-1-s-path35" d="M274.275,259h-8.684l-1.654,6.094h8.644L274.275,259Z" fill="#02697f" />
      <path id="illustration-1-s-path36" d="M282.417,259h-8.142l-1.694,6.094h8.623L282.417,259Z" fill="#02697f" />
      <path id="illustration-1-s-path37" d="M291.644,259h-9.227l-1.213,6.094h9.448l.992-6.094Z" fill="#02697f" />
      <path id="illustration-1-s-path38" d="M279.712,272.594h9.719l1.221-7.5h-9.448l-1.492,7.5Z" fill="#02697f" />
      <path id="illustration-1-s-path39" d="M272.581,265.094l-2.084,7.5h9.215l1.492-7.5h-8.623Z" fill="#02697f" />
      <path id="illustration-1-s-path40" d="M263.937,265.094l-2.035,7.5h8.595l2.084-7.5h-8.644Z" fill="#02697f" />
      <path id="illustration-1-s-path41" d="M255.575,265.094l-2.307,7.5h8.634l2.035-7.5h-8.362Z" fill="#02697f" />
      <path id="illustration-1-s-path42" d="M237.006,265.094l-2.448,7.5h9.483l2.307-7.5h-9.342Z" fill="#02697f" />
      <path id="illustration-1-s-path43" d="M255.575,265.094h-9.227l-2.307,7.5h9.227l2.307-7.5Z" fill="#02697f" />
      <path id="illustration-1-s-path44" d="M231.498,281.969h9.659l2.884-9.375h-9.483l-3.06,9.375Z" fill="#02697f" />
      <path id="illustration-1-s-path45" d="M250.384,281.969l2.884-9.375h-9.227l-2.884,9.375h9.227Z" fill="#02697f" />
      <path id="illustration-1-s-path46" d="M216.047,272.594l-2.748,9.375h8.883l2.866-9.375h-9.001Z" fill="#02697f" />
      <path id="illustration-1-s-path47" d="M234.558,272.594h-9.51l-2.866,9.375h9.316l3.06-9.375Z" fill="#02697f" />
      <path id="illustration-1-s-path48" d="M211.238,289h8.794l2.15-7.031h-8.883L211.238,289Z" fill="#02697f" />
      <path id="illustration-1-s-path49" d="M220.032,289h9.172l2.294-7.031h-9.316L220.032,289Z" fill="#02697f" />
      <path id="illustration-1-s-path50" d="M229.204,289h9.791l2.162-7.031h-9.659L229.204,289Z" fill="#02697f" />
      <path id="illustration-1-s-path51" d="M238.995,289h9.227l2.162-7.031h-9.227L238.995,289Z" fill="#02697f" />
      <path id="illustration-1-s-path52" d="M259.357,281.969l2.545-9.375h-8.634l-2.884,9.375h8.973Z" fill="#02697f" />
      <path id="illustration-1-s-path53" d="M248.222,289h9.227l1.908-7.031h-8.973L248.222,289Z" fill="#02697f" />
      <path id="illustration-1-s-path54" d="M267.891,281.969l2.606-9.375h-8.595l-2.545,9.375h8.534Z" fill="#02697f" />
      <path id="illustration-1-s-path55" d="M257.449,289h8.488l1.954-7.031h-8.534L257.449,289Z" fill="#02697f" />
      <path id="illustration-1-s-path56" d="M276.446,289l1.4-7.031h-9.955L265.937,289h10.509Z" fill="#02697f" />
      <path id="illustration-1-s-path57" d="M279.712,272.594h-9.215l-2.606,9.375h9.955l1.866-9.375Z" fill="#02697f" />
      <path id="illustration-1-s-path58" d="M289.431,272.594h-9.719l-1.866,9.375h10.058l1.527-9.375Z" fill="#02697f" />
      <path id="illustration-1-s-path59" d="M276.446,289h10.313l1.145-7.031h-10.058l-1.4,7.031Z" fill="#02697f" />
      <path id="illustration-1-s-path60" d="M357.202,259h-41.427v6.094h11.455h11.456h10.768h9.011L357.202,259Z"
        fill="#02697f" />
      <path id="illustration-1-s-path61" d="M315.775,272.594h11.454l.001-7.5h-11.455v7.5Z" fill="#02697f" />
      <path id="illustration-1-s-path62" d="M338.686,265.094h-11.456l-.001,7.5h11.456l.001-7.5Z" fill="#02697f" />
      <path id="illustration-1-s-path63" d="M349.454,265.094h-10.768l-.001,7.5h11.294l-.525-7.5Z" fill="#02697f" />
      <path id="illustration-1-s-path64" d="M358.465,265.094h-9.011l.525,7.5h10.04l-1.554-7.5Z" fill="#02697f" />
      <path id="illustration-1-s-path65" d="M350.634,281.969h11.329l-1.944-9.375h-10.04l.655,9.375Z" fill="#02697f" />
      <path id="illustration-1-s-path66" d="M423.268,281.969l-5.428-9.375h-6.656l5.104,9.375h6.98Z" fill="#02697f" />
      <path id="illustration-1-s-path67" d="M417.84,272.594l-4.342-7.5h-6.396l4.082,7.5h6.656Z" fill="#02697f" />
      <path id="illustration-1-s-path68" d="M401.297,272.594h9.887l-4.082-7.5h-9.589l3.784,7.5Z" fill="#02697f" />
      <path id="illustration-1-s-path69"
        d="M408.628,259h-14.189l3.074,6.094h9.589h6.396l-2.928-5.058c-.368-.635-1.119-1.036-1.942-1.036Z"
        fill="#02697f" />
      <path id="illustration-1-s-path70" d="M394.439,259h-18.267l2.763,6.094h9.666h8.912L394.439,259Z" fill="#02697f" />
      <path id="illustration-1-s-path71"
        d="M425.768,286.286l-2.5-4.317h-6.98L420.115,289h3.711c1.614,0,2.664-1.467,1.942-2.714Z" fill="#02697f" />
      <path id="illustration-1-s-path72" d="M416.288,281.969h-10.261L409.574,289h10.541l-3.827-7.031Z" fill="#02697f" />
      <path id="illustration-1-s-path73" d="M406.027,281.969h-9.946L399.197,289h10.377l-3.547-7.031Z" fill="#02697f" />
      <path id="illustration-1-s-path74" d="M375.33,281.969L377.878,289h11.897l-3.189-7.031h-11.256Z" fill="#02697f" />
      <path id="illustration-1-s-path75" d="M391.925,272.594h-9.589l4.25,9.375h9.495l-4.156-9.375Z" fill="#02697f" />
      <path id="illustration-1-s-path76" d="M399.197,289l-3.116-7.031h-9.495L389.775,289h9.422Z" fill="#02697f" />
      <path id="illustration-1-s-path77" d="M406.027,281.969l-4.73-9.375h-9.372l4.156,9.375h9.946Z" fill="#02697f" />
      <path id="illustration-1-s-path78" d="M416.288,281.969l-5.104-9.375h-9.887l4.73,9.375h10.261Z" fill="#02697f" />
      <path id="illustration-1-s-path79" d="M401.297,272.594l-3.784-7.5h-8.912l3.324,7.5h9.372Z" fill="#02697f" />
      <path id="illustration-1-s-path80" d="M388.601,265.094h-9.666l3.401,7.5h9.589l-3.324-7.5Z" fill="#02697f" />
      <path id="illustration-1-s-path81" d="M378.935,265.094h-9.719l2.717,7.5h10.403l-3.401-7.5Z" fill="#02697f" />
      <path id="illustration-1-s-path82" d="M358.465,265.094l1.554,7.5h11.914l-2.717-7.5h-10.751Z" fill="#02697f" />
      <path id="illustration-1-s-path83" d="M376.172,259h-18.97l1.263,6.094h10.751h9.719L376.172,259Z" fill="#02697f" />
      <path id="illustration-1-s-path84" d="M360.019,272.594l1.944,9.375h13.367l-3.397-9.375h-11.914Z" fill="#02697f" />
      <path id="illustration-1-s-path85" d="M375.33,281.969h11.256l-4.25-9.375h-10.403l3.397,9.375Z" fill="#02697f" />
      <path id="illustration-1-s-path86" d="M361.963,281.969h-11.329l.492,7.031h26.752l-2.548-7.031h-13.367Z"
        fill="#02697f" />
      <path id="illustration-1-s-path87" d="M338.683,281.969L338.682,289h12.444l-.492-7.031h-11.951Z" fill="#02697f" />
      <path id="illustration-1-s-path88" d="M349.979,272.594h-11.294l-.002,9.375h11.951l-.655-9.375Z" fill="#02697f" />
      <path id="illustration-1-s-path89" d="M327.229,272.594l-.002,9.375h11.456l.002-9.375h-11.456Z" fill="#02697f" />
      <path id="illustration-1-s-path90" d="M338.682,289l.001-7.031h-11.456L327.226,289h11.456Z" fill="#02697f" />
      <path id="illustration-1-s-path91" d="M315.775,281.969v7.031h11.451l.001-7.031h-11.452Z" fill="#02697f" />
      <path id="illustration-1-s-path92" d="M327.229,272.594h-11.454v9.375h11.452l.002-9.375Z" fill="#02697f" />
      <path id="illustration-1-s-path93" d="M315.775,289v-7.031h-9.476v7.031h9.476Z" fill="#02697f" />
      <path id="illustration-1-s-path94" d="M315.775,272.594h-9.476v9.375h9.476v-9.375Z" fill="#02697f" />
      <path id="illustration-1-s-path95" d="M315.775,265.094h-9.476v7.5h9.476v-7.5Z" fill="#02697f" />
      <path id="illustration-1-s-path96" d="M315.775,265.094v-6.094h-9.476v6.094h9.476Z" fill="#02697f" />
      <path id="illustration-1-s-path97" d="M298.158,259l-.221,6.094h8.362v-6.094h-8.141Z" fill="#02697f" />
      <path id="illustration-1-s-path98" d="M297.666,272.594h8.633v-7.5h-8.362l-.271,7.5Z" fill="#02697f" />
      <path id="illustration-1-s-path99" d="M290.652,265.094l-1.221,7.5h8.235l.271-7.5h-7.285Z" fill="#02697f" />
      <path id="illustration-1-s-path100" d="M291.644,259l-.992,6.094h7.285l.221-6.094h-6.514Z" fill="#02697f" />
      <path id="illustration-1-s-path101" d="M289.431,272.594l-1.527,9.375h9.422l.34-9.375h-8.235Z"
        transform="translate(.245838 0)" fill="#02697f" />
      <path id="illustration-1-s-path102" d="M306.299,281.969v-9.375h-8.633l-.34,9.375h8.973Z" fill="#02697f" />
      <path id="illustration-1-s-path103" d="M297.072,289h9.227v-7.031h-8.973L297.072,289Z"
        transform="translate(.245838 0)" fill="#02697f" />
      <path id="illustration-1-s-path104" d="M287.904,281.969L286.759,289h10.313l.254-7.031h-9.422Z" fill="#02697f" />
      <path id="illustration-1-s-path105"
        d="M425.768,286.286l-1.298.752v0l1.298-.752Zm-15.198-26.25l-1.298.752v0l1.298-.752ZM213.143,259v-1.5h-1.011l-.38.937l1.391.563Zm8.801.529c.292-.776-.1-1.641-.875-1.933-.776-.292-1.641.1-1.933.875l2.808,1.058Zm8.694-.09c.242-.793-.204-1.631-.996-1.873-.792-.243-1.631.203-1.873.995l2.869.878Zm98.092-.406c0-.829-.672-1.5-1.5-1.5-.829,0-1.5.671-1.5,1.5h3ZM340.186,259c0-.828-.672-1.5-1.5-1.5-.829,0-1.5.672-1.5,1.5h3Zm10.349-.102c-.057-.827-.772-1.451-1.599-1.395-.826.057-1.451.773-1.394,1.599l2.993-.204Zm11.702,30.46c.198.805,1.01,1.297,1.815,1.099.804-.198,1.296-1.011,1.098-1.815l-2.913.716Zm6.181-30.869c-.282-.779-1.142-1.181-1.921-.899s-1.181,1.142-.899,1.921l2.82-1.022Zm18.853-.097c-.336-.757-1.222-1.099-1.979-.763-.758.335-1.099,1.221-.764,1.979l2.743-1.216Zm17.831-.109c-.396-.728-1.307-.997-2.035-.6-.727.396-.996,1.307-.6,2.034l2.635-1.434Zm8.396,6.811l1.298-.752v0l-1.298.752Zm9.77,16.875l1.298-.752v0l-1.298.752ZM201,289l-1.39-.563c-.188.463-.133.988.146,1.401.279.414.745.662,1.244.662v-1.5Zm9.676-23.906l-1.39-.563v0l1.39.563Zm198.596-4.306l15.198,26.25l2.596-1.503-15.198-26.25-2.596,1.503Zm15.198,26.25c.032.056.03.084.03.093-.001.015-.008.053-.047.107-.078.108-.278.262-.627.262v3c1.265,0,2.397-.58,3.067-1.516.685-.958.856-2.27.173-3.449l-2.596,1.503ZM408.628,260.5c.365,0,.581.18.644.288l2.596-1.503c-.672-1.162-1.96-1.785-3.24-1.785v3ZM212.677,289.422l2.061-7.031-2.878-.844-2.061,7.031l2.878.844Zm.622-8.953h-9.453v3h9.453v-3Zm-10.843.937l-2.846,7.031l2.78,1.126l2.846-7.031-2.78-1.126ZM201,290.5h10.238v-3h-10.238v3Zm15.047-19.406h-8.406v3h8.406v-3Zm-9.797.937l-3.794,9.375l2.78,1.126l3.795-9.375-2.781-1.126Zm8.488,10.36l2.749-9.375-2.879-.844-2.748,9.375l2.878.844Zm3.508-18.797h-7.57v3h7.57v-3Zm-8.96.937l-3.036,7.5l2.781,1.126l3.036-7.5-2.781-1.126Zm8.201,8.485l2.198-7.5-2.879-.844-2.198,7.5l2.879.844Zm-5.735-14.579l-2.466,6.094l2.781,1.126l2.466-6.094-2.781-1.126Zm7.384.034l-2.294,6.094l2.807,1.057l2.295-6.093-2.808-1.058Zm19.859-.971h-25.852v3h25.852v-3Zm-20.749,9.094h9.095v-3h-9.095v3Zm9.095,0h9.665v-3h-9.665v3Zm11.091-1.035l1.989-6.094-2.852-.93-1.989,6.093l2.852.931Zm-10.663-6.998l-1.863,6.094l2.869.877l1.863-6.093-2.869-.878Zm-2.721,15.533h9.51v-3h-9.51v3Zm10.936-1.035l2.448-7.5-2.852-.931-2.448,7.5l2.852.931Zm-10.078-8.404l-2.293,7.5l2.869.877l2.293-7.5-2.869-.877Zm-9.859,9.439h9.001v-3h-9.001v3ZM248.222,257.5h-9.227v3h9.227v-3Zm-11.216,9.094h9.342v-3h-9.342v3Zm10.775-1.059l1.875-6.094-2.868-.882-1.874,6.094l2.867.882Zm9.668-8.035h-9.227v3h9.227v-3Zm-11.101,9.094h9.227v-3h-9.227v3Zm10.66-1.059l1.875-6.094-2.868-.882-1.874,6.094l2.867.882Zm8.583-8.035h-8.142v3h8.142v-3Zm-10.016,9.094h8.362v-3h-8.362v3Zm9.81-1.107l1.653-6.094-2.895-.786-1.654,6.094l2.896.786Zm8.89-7.987h-8.684v3h8.684v-3Zm-10.338,9.094h8.644v-3h-8.644v3Zm10.09-1.099l1.693-6.093-2.89-.804-1.694,6.094l2.891.803Zm8.39-7.995h-8.142v3h8.142v-3Zm-9.836,9.094h8.623v-3h-8.623v3Zm10.094-1.207l1.213-6.094-2.942-.586-1.213,6.094l2.942.586Zm8.969-7.887h-9.227v3h9.227v-3Zm-10.44,9.094h9.448v-3h-9.448v3Zm10.928-1.259l.993-6.094-2.961-.482-.993,6.094l2.961.482Zm-12.42,8.759h9.719v-3h-9.719v3Zm11.199-1.259l1.221-7.5-2.961-.482-1.221,7.5l2.961.482Zm-11.178-8.034l-1.493,7.5l2.943.586l1.492-7.5-2.942-.586Zm-8.597-.109l-2.084,7.5l2.89.803l2.085-7.5-2.891-.803Zm-.639,9.402h9.215v-3h-9.215v3Zm-8.008-9.393l-2.035,7.5l2.895.786l2.036-7.5-2.896-.786Zm-.587,9.393h8.595v-3h-8.595v3Zm-7.761-9.441l-2.307,7.5l2.868.882l2.306-7.5-2.867-.882Zm-.873,9.441h8.634v-3h-8.634v3Zm-18.71,0h9.483v-3h-9.483v3Zm10.916-1.059l2.307-7.5-2.867-.882-2.307,7.5l2.867.882Zm-1.433,1.059h9.227v-3h-9.227v3Zm-12.543,9.375h9.659v-3h-9.659v3Zm11.093-1.059l2.883-9.375-2.867-.882-2.884,9.375l2.868.882Zm-9.459-10.282l-3.06,9.375l2.852.931l3.06-9.375-2.852-.931Zm6.591,9.4l-2.162,7.031l2.867.882l2.163-7.031-2.868-.882Zm-9.651-.025l-2.294,7.032l2.852.93l2.294-7.031-2.852-.931Zm21.746.907l2.884-9.375-2.868-.882-2.883,9.375l2.867.882Zm-10.661,1.059h9.227v-3h-9.227v3Zm7.794-1.941l-2.163,7.031l2.868.882l2.162-7.031-2.867-.882Zm-35.652,1.941h8.883v-3h-8.883v3Zm10.317-1.062l2.866-9.375-2.869-.877-2.866,9.375l2.869.877Zm-1.434,1.062h9.316v-3h-9.316v3Zm-1.435-1.939l-2.15,7.031l2.869.878l2.15-7.032-2.869-.877Zm-9.509,8.97h8.794v-3h-8.794v3Zm8.794,0h9.172v-3h-9.172v3Zm9.172,0h9.791v-3h-9.791v3Zm9.791,0h9.227v-3h-9.227v3Zm21.81-8.138l2.544-9.375-2.895-.786-2.544,9.375l2.895.786Zm-10.421,1.107h8.973v-3h-8.973v3Zm7.526-1.893l-1.909,7.031l2.896.786l1.908-7.031-2.895-.786Zm-9.688,8.924h9.227v-3h-9.227v3Zm21.114-8.13l2.606-9.375-2.89-.803-2.606,9.375l2.89.803Zm-9.979,1.099h8.534v-3h-8.534v3Zm-1.908,7.031h8.488v-3h-8.488v3Zm9.933-1.098l1.954-7.032-2.89-.803-1.955,7.031l2.891.804Zm-1.445-1.902h-64.937v3h64.937v-3Zm11.98,1.793l1.4-7.031-2.942-.586-1.4,7.031l2.942.586Zm-.071-8.824h-9.955v3h9.955v-3ZM265.937,290.5h10.509v-3h-10.509v3Zm12.303-18.199l-1.865,9.375l2.942.586l1.866-9.375-2.943-.586Zm-.394,11.168h10.058v-3h-10.058v3Zm11.539-1.259l1.526-9.375-2.961-.482-1.526,9.375l2.961.482Zm-2.961-.482l-1.145,7.031l2.961.482l1.145-7.031-2.961-.482Zm-9.978,8.772h10.313v-3h-10.313v3Zm80.756-33h-41.427v3h41.427v-3ZM314.275,259v6.094h3v-6.094h-3Zm1.5,7.594h11.455v-3h-11.455v3Zm11.455,0h11.456v-3h-11.456v3Zm11.456,0h10.768v-3h-10.768v3Zm10.768,0h9.011v-3h-9.011v3Zm10.48-1.805l-1.263-6.093-2.938.608l1.263,6.094l2.938-.609ZM337.186,259v6.094h3v-6.094h-3Zm-11.456.033v6.061h3v-6.061h-3Zm21.812.069l.415,6.094l2.993-.204-.415-6.094-2.993.204Zm-31.767,14.992h11.454v-3h-11.454v3Zm12.954-1.5l.001-7.5h-3l-.001,7.5h3Zm-14.454-7.5v7.5h3v-7.5h-3Zm12.954,9h11.456v-3h-11.456v3Zm12.956-1.5l.001-7.5h-3l-.001,7.5h3Zm-1.5,1.5h11.294v-3h-11.294v3Zm12.79-1.605l-.525-7.5-2.992.209.524,7.5l2.993-.209Zm-1.496,1.605h10.04v-3h-10.04v3Zm11.509-1.805l-1.554-7.5-2.938.609l1.555,7.5l2.937-.609Zm-10.854,11.18h11.329v-3h-11.329v3Zm12.797-1.805l-1.943-9.375-2.937.609l1.943,9.375l2.937-.609Zm-14.949-8.966l.656,9.375l2.993-.209-.656-9.375-2.993.209Zm12.024,9.629l1.731,7.031l2.913-.716-1.731-7.032-2.913.717Zm64.06-1.11l-5.427-9.375-2.597,1.503l5.428,9.375l2.596-1.503Zm-6.726-10.123h-6.656v3h6.656v-3Zm-7.973,2.217l5.103,9.375l2.635-1.434-5.103-9.375-2.635,1.434Zm6.421,10.158h6.98v-3h-6.98v3Zm-16.33-10.2l4.729,9.375l2.679-1.351-4.73-9.375-2.678,1.351Zm6.069,10.2h10.261v-3h-10.261v3Zm5.157-12.375h-9.887v3h9.887v-3Zm7.955.748l-4.343-7.5-2.596,1.503l4.342,7.5l2.597-1.503Zm-5.641-8.248h-6.396v3h6.396v-3Zm-7.714,2.217l4.083,7.5l2.635-1.434-4.083-7.5-2.635,1.434Zm-3.317-6.094l3.317,6.094l2.635-1.434-3.317-6.094-2.635,1.434Zm4.635,3.877h-9.589v3h9.589v-3Zm-10.928,2.175l3.784,7.5l2.678-1.351-3.784-7.5-2.678,1.351Zm-3.074-6.093l3.074,6.093l2.678-1.351-3.074-6.094-2.678,1.352Zm15.528-2.176h-14.189v3h14.189v-3Zm6.168,6.842l-2.928-5.057-2.596,1.503l2.928,5.057l2.596-1.503ZM394.439,257.5h-18.267v3h18.267v-3Zm-19.633,2.119l2.763,6.094l2.732-1.239-2.763-6.093-2.732,1.238Zm4.129,6.975h9.666v-3h-9.666v3Zm9.666,0h8.912v-3h-8.912v3Zm-4.073-6.986l2.701,6.094l2.743-1.216-2.701-6.094-2.743,1.216Zm42.538,25.927l-2.5-4.318-2.596,1.503l2.5,4.318l2.596-1.503Zm-12.096-2.849l3.828,7.031l2.635-1.434-3.828-7.031-2.635,1.434Zm5.145,7.814h3.711v-3h-3.711v3Zm-15.428-7.856l3.548,7.032l2.678-1.352-3.547-7.031-2.679,1.351Zm4.887,7.856h10.541v-3h-10.541v3Zm-3.547-10.031h-9.946v3h9.946v-3Zm-11.318,2.108l3.117,7.031l2.743-1.216-3.117-7.031-2.743,1.216Zm4.488,7.923h10.377v-3h-10.377v3Zm-25.277-8.02l2.548,7.031l2.82-1.022-2.547-7.031-2.821,1.022Zm3.958,8.02h11.897v-3h-11.897v3Zm13.263-2.119l-3.188-7.032-2.733,1.239l3.188,7.031l2.733-1.238Zm-4.555-7.912h-11.256v3h11.256v-3Zm12.611,7.031h-9.422v3h9.422v-3Zm-37.234-4.031h13.367v-3h-13.367v3Zm24.623,0h9.495v-3h-9.495v3Zm5.339-12.375h-9.589v3h9.589v-3Zm-10.956,2.119l4.251,9.375l2.733-1.239-4.251-9.375-2.733,1.239Zm16.483,8.148l-4.156-9.375-2.742,1.216l4.155,9.375l2.743-1.216Zm-19.883-15.648l3.4,7.5l2.733-1.239-3.401-7.5-2.732,1.239Zm9.66-.011l3.325,7.5l2.742-1.216-3.324-7.5-2.743,1.216Zm4.696,8.392h9.372v-3h-9.372v3Zm-12.99-10.5h-9.719v3h9.719v-3Zm-11.129,2.011l2.717,7.5l2.821-1.022-2.718-7.5-2.82,1.022Zm4.127,8.489h10.403v-3h-10.403v3Zm-11.914,0h11.914v-3h-11.914v3Zm5.579-14.583l2.208,6.094l2.82-1.022-2.208-6.094-2.82,1.022Zm4.925,13.594l3.397,9.375l2.821-1.022-3.397-9.375-2.821,1.022Zm-12.058-6.511h10.751v-3h-10.751v3Zm17.707-9.094h-18.97v3h18.97v-3Zm-27.034,24.573l.492,7.032l2.993-.21-.492-7.031-2.993.209Zm1.988,8.427h26.752v-3h-26.752v3Zm-13.943-8.531L337.182,289h3l.001-7.031h-3Zm1.499,8.531h12.444v-3h-12.444v3Zm11.952-10.031h-11.951v3h11.951v-3Zm-13.449-7.875l-.002,9.375h3l.002-9.375h-3Zm-11.456,0l-.002,9.375h3l.002-9.375h-3Zm1.498,10.875h11.456v-3h-11.456v3Zm-1.5-1.5L325.726,289h3l.001-7.031h-3Zm1.499,8.531h11.456v-3h-11.456v3Zm-12.951-8.531v7.031h3v-7.031h-3Zm1.5,8.531h11.451v-3h-11.451v3Zm11.452-10.031h-11.452v3h11.452v-3Zm-12.952-7.875v9.375h3v-9.375h-3ZM213.143,260.5h85.015v-3h-85.015v3Zm83.929,27h-31.135v3h31.135v-3Zm1.086-27h8.141v-3h-8.141v3Zm8.141,0h102.329v-3h-102.329v3Zm20.927,27h-20.927v3h20.927v-3Zm-20.927,0h-9.227v3h9.227v-3Zm9.476-7.031h-9.476v3h9.476v-3Zm-10.976,1.5v7.031h3v-7.031h-3Zm1.5,8.531h9.476v-3h-9.476v3Zm9.476-19.406h-9.476v3h9.476v-3Zm-10.976,1.5v9.375h3v-9.375h-3Zm10.976-9h-9.476v3h9.476v-3Zm-10.976,1.5v7.5h3v-7.5h-3Zm0-6.094v6.094h3v-6.094h-3Zm10.976-1.5h-9.476v3h9.476v-3Zm-19.116,1.446l-.221,6.094l2.998.108.221-6.094-2.998-.108Zm1.278,7.648h8.362v-3h-8.362v3Zm-7.285,0h7.285v-3h-7.285v3Zm7.014,7.5h8.633v-3h-8.633v3Zm-1.228-9.054l-.271,7.5l2.998.108.271-7.5-2.998-.108Zm-7.007,9.054h8.235v-3h-8.235v3Zm8.727-16.594h-6.514v3h6.514v-3Zm-10.254,25.969h9.422v-3h-9.422v3Zm10.921-1.446l.34-9.375-2.998-.108-.34,9.375l2.998.108Zm-2.998-.108l-.254,7.031l2.998.108.254-7.031-2.998-.108Zm1.499,1.554h8.973v-3h-8.973v3ZM286.759,290.5h10.313v-3h-10.313v3Z"
        opacity="0" fill="#018196" />
      <path id="illustration-1-s-path106"
        d="M261.854,294.004c.454-1.768,2.048-3.004,3.874-3.004h91.029c1.532,0,2.929.875,3.598,2.253l4.855,10c1.29,2.657-.645,5.747-3.598,5.747h-98.454c-2.613,0-4.525-2.465-3.874-4.996l2.57-10Z"
        fill="#02697f" />
      <path id="illustration-1-s-path107"
        d="M208,148c0-2.209,1.863-4,4.161-4h198.678c2.298,0,4.161,1.791,4.161,4v103c0,2.209-1.863,4-4.161,4h-198.678c-2.298,0-4.161-1.791-4.161-4v-103Z"
        fill="#fff" />
      <path id="illustration-1-s-path108"
        d="M216.322,145.505v100.99h190.356v-100.99h-190.356ZM212.161,137c-2.298,0-4.161,1.904-4.161,4.252v109.496c0,2.348,1.863,4.252,4.161,4.252h198.678c2.298,0,4.161-1.904,4.161-4.252v-109.496c0-2.348-1.863-4.252-4.161-4.252h-198.678Z"
        clip-rule="evenodd" fill="#0f697f" fill-rule="evenodd" />
      <path id="illustration-1-s-path109"
        d="M215.822,246.495v.5h.5h190.356.5v-.5-100.99-.5h-.5-190.356-.5v.5v100.99ZM208.5,141.252c0-2.082,1.649-3.752,3.661-3.752h198.678c2.012,0,3.661,1.67,3.661,3.752v109.496c0,2.082-1.649,3.752-3.661,3.752h-198.678c-2.012,0-3.661-1.67-3.661-3.752v-109.496Z"
        fill="none" stroke="#000" stroke-opacity="0.05" />
      <rect id="illustration-1-s-rect1" width="93" height="86" rx="2" ry="2"
        transform="matrix(.997463 0 0 0.951288 302.117971 155.094616)" fill="#ccece6" />
      <rect id="illustration-1-s-rect2" width="92" height="85" rx="1.5" ry="1.5" transform="translate(302.5 153.5)"
        fill="none" stroke="#000" stroke-opacity="0.05" />
      <rect id="illustration-1-s-rect3" width="39" height="36" rx="1" ry="1" transform="translate(232 157)"
        fill="#ccece6" />
      <rect id="illustration-1-s-rect4" width="38" height="35" rx="0.5" ry="0.5" transform="translate(232.5 157.5)"
        fill="none" stroke="#000" stroke-opacity="0.1" />
      <rect id="illustration-1-s-rect5" width="5" height="86" rx="1" ry="1" transform="translate(287 153)"
        fill="#ccece6" />
      <rect id="illustration-1-s-rect6" width="4" height="85" rx="0.5" ry="0.5" transform="translate(287.5 153.5)"
        fill="none" stroke="#000" stroke-opacity="0.03" />
      <rect id="illustration-1-s-rect7" width="5" height="54" rx="1" ry="1" transform="matrix(0-1 1 0 225 209)"
        opacity="0.5" fill="#ccece6" />
      <rect id="illustration-1-s-rect8" width="4" height="53" rx="0.5" ry="0.5" transform="matrix(0-1 1 0 225.5 208.5)"
        fill="none" stroke="#000" stroke-opacity="0.05" />
      <rect id="illustration-1-s-rect9" width="5" height="54" rx="1" ry="1" transform="matrix(0-1 1 0 225 217)"
        fill="#ccece6" />
      <rect id="illustration-1-s-rect10" width="4" height="53" rx="0.5" ry="0.5" transform="matrix(0-1 1 0 225.5 216.5)"
        fill="none" stroke="#000" stroke-opacity="0.05" />
      <rect id="illustration-1-s-rect11" width="5" height="54" rx="1" ry="1" transform="matrix(0-1 1 0 225 225)"
        fill="#ccece6" />
      <rect id="illustration-1-s-rect12" width="4" height="53" rx="0.5" ry="0.5" transform="matrix(0-1 1 0 225.5 224.5)"
        fill="none" stroke="#000" stroke-opacity="0.05" />
      <path id="illustration-1-s-path110"
        d="M311.5,144c1.381,0,2.5-1.119,2.5-2.5s-1.119-2.5-2.5-2.5-2.5,1.119-2.5,2.5s1.119,2.5,2.5,2.5Z" fill="#fff" />
      <path id="illustration-1-s-path111" d="M313.5,141.5c0,1.105-.895,2-2,2s-2-.895-2-2s.895-2,2-2s2,.895,2,2Z"
        fill="none" stroke="#000" stroke-opacity="0.2" />
      <path id="illustration-1-s-path112"
        d="M322.839,233.895c-.446-.402-.441-1.103.011-1.497l11.955-10.439c.649-.567,1.664-.101,1.657.761l-.047,6.559c-.004.555.445,1.007,1,1.007h51.47c.552,0,1-.447,1-1v-20.66c0-1.45,1.145-2.626,2.557-2.626c1.413,0,2.558,1.176,2.558,2.626v24.286c0,1.45-1.145,2.626-2.558,2.626h-55.079c-.549,0-.996.443-1,.992l-.052,7.247c-.006.862-1.028,1.313-1.669.736l-11.803-10.618Z"
        fill="#036881" />
      <path id="illustration-1-s-path113"
        d="M336.415,229.279l.5.004-.5-.004Zm-.052,7.251l-.5-.003.5.003Zm-1.721,7.983l-.334.372.334-.372Zm1.669-.736l-.5-.004.5.004Zm-1.506-21.818l.329.377-.329-.377Zm1.657.761l-.5-.004.5.004Zm-13.612,9.678l-.329-.377.329.377Zm-.011,1.497l-.335.371.335-.371Zm.34-1.12l11.955-10.439-.658-.753-11.955,10.438.658.754Zm11.798,11.366l-11.804-10.618-.669.743l11.804,10.619.669-.744Zm57.465-8.103c1.701,0,3.058-1.412,3.058-3.126h-1c0,1.186-.934,2.126-2.058,2.126v1Zm-3.057-27.412v20.66h1v-20.66h-1Zm3.057-3.126c-1.701,0-3.057,1.412-3.057,3.126h1c0-1.187.933-2.126,2.057-2.126v-1Zm3.058,3.126c0-1.714-1.357-3.126-3.058-3.126v1c1.124,0,2.058.939,2.058,2.126h1Zm0,24.286v-24.286h-1v24.286h1Zm-58.137,3.126h55.079v-1h-55.079v1Zm-1.5.489l-.052,7.246l1,.007.052-7.246-1-.007Zm.099-13.811l-.047,6.56l1,.007.047-6.559-1-.008Zm52.923,7.07h-51.47v1h51.47v-1Zm-52.97-.51c-.006.832.668,1.51,1.5,1.51v-1c-.277,0-.502-.226-.5-.503l-1-.007Zm1.448,5.762c-.824,0-1.494.665-1.5,1.489l1,.007c.002-.275.225-.496.5-.496v-1Zm-3.055,9.847c.961.865,2.494.189,2.503-1.105l-1-.007c-.003.431-.514.657-.834.368l-.669.744Zm.826-22.549c.324-.283.832-.051.828.38l1,.008c.01-1.294-1.512-1.992-2.486-1.141l.658.753Zm54.251,6.95c0,.277-.224.5-.5.5v1c.828,0,1.5-.671,1.5-1.5h-1Zm-66.864,2.735c-.678.592-.686,1.643-.017,2.245l.669-.743c-.223-.201-.22-.551.006-.748l-.658-.754Z"
        fill-opacity="0.05" />
      <path id="illustration-1-s-path114"
        d="M278.211,162.033c.459.402.454,1.118-.011,1.513l-8.775,7.465c-.652.554-1.654.086-1.648-.77l.032-4.264c.004-.555-.445-1.007-1-1.007h-39.809c-.552,0-1,.447-1,1v15.5c0,1.104-.895,2-2,2s-2-.896-2-2v-18.5c0-1.105.895-2,2-2h42.853c.549,0,.996-.444,1-.993l.035-4.793c.007-.856,1.016-1.308,1.659-.744l8.664,7.593Z"
        fill="#50c8b2" />
      <path id="illustration-1-s-path115"
        d="M267.809,165.977l-.5-.004.5.004Zm.044-6l-.5-.004.5.004Zm.035-4.793l-.5-.003.5.003Zm1.537,15.827l.324.38-.324-.38Zm-1.648-.77l-.5-.003.5.003Zm10.434-8.208l.33-.376-.33.376Zm-.335,1.133l-8.775,7.464.648.761l8.775-7.464-.648-.761Zm-8.658-8.35l8.664,7.593.659-.752-8.664-7.593-.659.752ZM224,160.47c-1.381,0-2.5,1.119-2.5,2.5h1c0-.829.672-1.5,1.5-1.5v-1Zm2.5,21v-15.5h-1v15.5h1Zm-2.5,2.5c1.381,0,2.5-1.12,2.5-2.5h-1c0,.828-.672,1.5-1.5,1.5v1Zm-2.5-2.5c0,1.38,1.119,2.5,2.5,2.5v-1c-.828,0-1.5-.672-1.5-1.5h-1Zm0-18.5v18.5h1v-18.5h-1Zm45.353-2.5h-42.853v1h42.853v-1Zm1.5-.489l.035-4.793-1-.007-.035,4.792l1,.008Zm-.076,10.264l.032-4.264-1-.008-.032,4.265l1,.007ZM227,165.47h39.809v-1h-39.809v1Zm41.309.511c.006-.833-.668-1.511-1.5-1.511v1c.277,0,.502.226.5.503l1,.008Zm-1.456-4.511c.824,0,1.494-.665,1.5-1.489l-1-.008c-.002.275-.225.497-.5.497v1Zm3.024-7.406c-.966-.847-2.479-.167-2.489,1.117l1,.007c.003-.428.508-.654.83-.372l.659-.752Zm-.776,16.566c-.326.277-.827.043-.824-.385l-1-.007c-.009,1.284,1.494,1.985,2.472,1.153l-.648-.761ZM226.5,165.97c0-.276.224-.5.5-.5v-1c-.828,0-1.5.671-1.5,1.5h1Zm52.024-2.043c.698-.593.705-1.667.017-2.27l-.659.752c.229.201.227.559-.006.757l.648.761Z"
        fill-opacity="0.05" />
      <rect id="illustration-1-s-rect13" width="65" height="63" rx="5" ry="5" transform="translate(171 186)"
        fill="#4490a2" />
      <rect id="illustration-1-s-rect14" width="64" height="62" rx="4.5" ry="4.5" transform="translate(171.5 186.5)"
        fill="none" stroke="#000" stroke-opacity="0.05" />
      <rect id="illustration-1-s-rect15" width="65" height="63" rx="5" ry="5" transform="translate(166 180)"
        fill="#036f86" />
      <rect id="illustration-1-s-rect16" width="64" height="62" rx="4.5" ry="4.5" transform="translate(166.5 180.5)"
        fill="none" stroke="#000" stroke-opacity="0.05" />
      <rect id="illustration-1-s-rect17" width="23" height="23" rx="2" ry="2" transform="translate(170 187)"
        fill="#fff" />
      <rect id="illustration-1-s-rect18" width="22" height="22" rx="1.5" ry="1.5" transform="translate(170.5 187.5)"
        fill="none" stroke="#000" stroke-opacity="0.05" />
      <rect id="illustration-1-s-rect19" width="31" height="4" rx="2" ry="2" transform="translate(196 192)"
        fill="#fff" />
      <rect id="illustration-1-s-rect20" width="32" height="5" rx="2.5" ry="2.5" transform="translate(195.5 191.5)"
        fill="none" stroke="#000" stroke-opacity="0.05" />
      <rect id="illustration-1-s-rect21" width="32" height="5" rx="2.5" ry="2.5" transform="translate(195.5 191.5)"
        fill="none" stroke="#000" stroke-opacity="0.05" />
      <rect id="illustration-1-s-rect22" width="31" height="4" rx="2" ry="2" transform="translate(196 200)"
        fill="#fff" />
      <rect id="illustration-1-s-rect23" width="32" height="5" rx="2.5" ry="2.5" transform="translate(195.5 199.5)"
        fill="none" stroke="#000" stroke-opacity="0.05" />
      <rect id="illustration-1-s-rect24" width="32" height="5" rx="2.5" ry="2.5" transform="translate(195.5 199.5)"
        fill="none" stroke="#000" stroke-opacity="0.05" />
      <path id="illustration-1-s-path116"
        d="M173,220c0-1.105.895-2,2-2h47c1.105,0,2,.895,2,2v12c0,1.105-.895,2-2,2h-47c-1.105,0-2-.895-2-2v-12Z"
        fill="#086f85" />
      <path id="illustration-1-s-path117"
        d="M175,218.25h47c.966,0,1.75.784,1.75,1.75v12c0,.966-.784,1.75-1.75,1.75h-47c-.966,0-1.75-.784-1.75-1.75v-12c0-.966.784-1.75,1.75-1.75Z"
        fill="none" stroke="#000" stroke-width="0.5" stroke-opacity="0.1" />
      <path id="illustration-1-s-path118"
        d="M175,216h47c2.209,0,4,1.791,4,4v12c0,2.209-1.791,4-4,4h-47c-2.209,0-4-1.791-4-4v-12c0-2.209,1.791-4,4-4Zm0,2c-1.105,0-2,.895-2,2v12c0,1.105.895,2,2,2h47c1.105,0,2-.895,2-2v-12c0-1.105-.895-2-2-2h-47Z"
        clip-rule="evenodd" fill="#fff" fill-rule="evenodd" />
      <path id="illustration-1-s-path119"
        d="M222,215.75h-47c-2.347,0-4.25,1.903-4.25,4.25v12c0,2.347,1.903,4.25,4.25,4.25h47c2.347,0,4.25-1.903,4.25-4.25v-12c0-2.347-1.903-4.25-4.25-4.25ZM173.25,220c0-.966.784-1.75,1.75-1.75h47c.966,0,1.75.784,1.75,1.75v12c0,.966-.784,1.75-1.75,1.75h-47c-.966,0-1.75-.784-1.75-1.75v-12Z"
        fill="none" stroke="#000" stroke-width="0.5" stroke-opacity="0.1" />
      <rect id="illustration-1-s-rect25" width="153" height="47" rx="7" ry="7" transform="translate(357 179)"
        fill="#3d8ea0" />
      <rect id="illustration-1-s-rect26" width="152" height="46" rx="6.5" ry="6.5" transform="translate(357.5 179.5)"
        fill="none" stroke="#000" stroke-opacity="0.05" />
      <path id="illustration-1-s-path120"
        d="M349,174c0-3.314,2.686-6,6-6h141c3.314,0,6,2.686,6,6v35c0,3.314-2.686,6-6,6h-141c-3.314,0-6-2.686-6-6v-35Z"
        fill="#53c8b5" />
      <path id="illustration-1-s-path121"
        d="M390,191c0,7.732-6.268,14-14,14s-14-6.268-14-14s6.268-14,14-14s14,6.268,14,14Z" fill="#f8f6d9" />
      <path id="illustration-1-s-path122" d="M400,182h91v6h-91v-6Z" fill="#f8f6d9" />
      <path id="illustration-1-s-path123" d="M400,195h91v6h-91v-6Z" fill="#f8f6d9" />
      <g id="illustration-1-s-g5" mask="url(#illustration-1-u-path-51-inside-1_1_292)">
        <path id="illustration-1-s-path124"
          d="M400,182v-1h-1v1h1Zm91,0h1v-1h-1v1Zm0,6v1h1v-1h-1Zm-91,0h-1v1h1v-1Zm0,7v-1h-1v1h1Zm91,0h1v-1h-1v1Zm0,6v1h1v-1h-1Zm-91,0h-1v1h1v-1Zm-45-32h141v-2h-141v2Zm146,5v35h2v-35h-2Zm-5,40h-141v2h141v-2Zm-146-5v-35h-2v35h2Zm5,5c-2.761,0-5-2.239-5-5h-2c0,3.866,3.134,7,7,7v-2Zm146-5c0,2.761-2.239,5-5,5v2c3.866,0,7-3.134,7-7h-2Zm-5-40c2.761,0,5,2.239,5,5h2c0-3.866-3.134-7-7-7v2Zm-141-2c-3.866,0-7,3.134-7,7h2c0-2.761,2.239-5,5-5v-2Zm34,24c0,7.18-5.82,13-13,13v2c8.284,0,15-6.716,15-15h-2Zm-13,13c-7.18,0-13-5.82-13-13h-2c0,8.284,6.716,15,15,15v-2Zm-13-13c0-7.18,5.82-13,13-13v-2c-8.284,0-15,6.716-15,15h2Zm13-13c7.18,0,13,5.82,13,13h2c0-8.284-6.716-15-15-15v2Zm24,5h91v-2h-91v2Zm90-1v6h2v-6h-2Zm1,5h-91v2h91v-2Zm-90,1v-6h-2v6h2Zm-1,8h91v-2h-91v2Zm90-1v6h2v-6h-2Zm1,5h-91v2h91v-2Zm-90,1v-6h-2v6h2Z"
          fill-opacity="0.05" />
        <mask id="illustration-1-u-path-51-inside-1_1_292" mask-type="luminance">
          <path id="illustration-1-s-path125"
            d="M349,174c0-3.314,2.686-6,6-6h141c3.314,0,6,2.686,6,6v35c0,3.314-2.686,6-6,6h-141c-3.314,0-6-2.686-6-6v-35Z"
            fill="#fff" />
          <path id="illustration-1-s-path126"
            d="M390,191c0,7.732-6.268,14-14,14s-14-6.268-14-14s6.268-14,14-14s14,6.268,14,14Z" fill="#fff" />
          <path id="illustration-1-s-path127" d="M400,182h91v6h-91v-6Z" fill="#fff" />
          <path id="illustration-1-s-path128" d="M400,195h91v6h-91v-6Z" fill="#fff" />
        </mask>
      </g>
      <g id="illustration-1-s-circle2_to" transform="translate(32.753459,140.684128)">
        <circle id="illustration-1-s-circle2" r="15" transform="translate(0,0)" fill="#ccece6" />
      </g>
      <g id="illustration-1-u-copy-of-circle_to" transform="translate(32.753459,140.684128)">
        <circle id="illustration-1-u-copy-of-circle" r="15" transform="translate(0,0)" opacity="0.3" fill="#ccece6" />
      </g>
    </g>
    <clipPath id="illustration-1-u-clip0_1_292">
      <rect id="illustration-1-s-rect27" width="560" height="337" rx="0" ry="0" fill="#fff" />
    </clipPath>
  </g>
</svg>