<svg width="560" height="337" viewBox="0 0 560 337" fill="none" xmlns="http://www.w3.org/2000/svg">
<g clip-path="url(#clip0_1_292)">
<circle cx="501.5" cy="80.5" r="44.5" fill="#CCECE6"/>
<path d="M391.533 45.1727C366.767 2.07626 311.754 -12.7836 268.658 11.9822C254.997 19.8322 244.174 30.7213 236.55 43.3065C233.664 48.0714 226.966 49.361 222.514 46.0123C187.106 19.3804 136.584 22.331 104.542 54.6955C79.4538 80.0367 72.5112 116.526 83.6336 148.038C85.2365 152.58 83.0151 157.726 78.6111 159.675C47.0327 173.651 25 205.26 25 242.015C25 291.721 65.2944 332.015 115 332.015H292.598L467.196 336.486C516.886 337.758 556.823 298.454 559.471 248.819C566.5 117.015 433.5 150 391.533 45.1727Z" fill="#D3F0EB"/>
<g opacity="0.45">
<path d="M442.428 223.15C442.573 222.479 443.16 222 443.838 222L449.828 222C450.54 222 451.145 222.526 451.254 223.24L452.669 232.509C452.805 233.398 452.128 234.199 451.242 234.198L441.832 234.188C440.911 234.187 440.227 233.322 440.424 232.409L442.428 223.15Z" fill="#018196"/>
<path d="M422.253 235.211C421.885 234.633 421.964 233.874 422.441 233.385L426.66 229.07C427.161 228.557 427.956 228.492 428.532 228.916L436.013 234.424C436.73 234.952 436.814 236.004 436.189 236.642L429.555 243.414C428.906 244.077 427.819 243.961 427.319 243.175L422.253 235.211Z" fill="#018196"/>
<path d="M416.105 257.834C415.446 257.673 414.986 257.068 415 256.381L415.122 250.303C415.137 249.581 415.668 248.977 416.373 248.881L425.534 247.634C426.412 247.514 427.188 248.218 427.169 249.117L426.967 258.664C426.947 259.598 426.082 260.275 425.186 260.056L416.105 257.834Z" fill="#018196"/>
<path d="M447.641 285.864C447.481 286.567 446.841 287.047 446.132 286.996L440.269 286.573C439.543 286.521 438.969 285.927 438.93 285.189L438.326 273.533C438.279 272.626 439.047 271.895 439.936 272.001L448.903 273.072C449.756 273.174 450.333 274.005 450.14 274.855L447.641 285.864Z" fill="#018196"/>
<path d="M467.559 277.992C467.806 278.639 467.572 279.374 466.998 279.751L461.991 283.04C461.389 283.435 460.593 283.322 460.121 282.774L452.877 274.37C452.293 273.693 452.444 272.646 453.195 272.167L461.467 266.886C462.235 266.396 463.253 266.737 463.581 267.595L467.559 277.992Z" fill="#018196"/>
<path d="M478.039 254.333C478.685 254.565 479.08 255.226 478.986 255.914L478.167 261.919C478.07 262.635 477.472 263.171 476.76 263.183L466.121 263.351C465.22 263.365 464.527 262.548 464.675 261.646L466.272 251.922C466.42 251.023 467.332 250.478 468.178 250.783L478.039 254.333Z" fill="#018196"/>
<path d="M468.685 231.197C469.309 230.927 470.033 231.133 470.427 231.693L473.905 236.641C474.319 237.229 474.248 238.036 473.738 238.54L466.788 245.415C466.179 246.017 465.192 245.958 464.658 245.286L458.554 237.611C457.953 236.855 458.23 235.725 459.111 235.344L468.685 231.197Z" fill="#018196"/>
<path fill-rule="evenodd" clip-rule="evenodd" d="M446.533 275.921C458.587 275.921 468.359 266.004 468.359 253.772C468.359 241.54 458.587 231.623 446.533 231.623C434.479 231.623 424.708 241.54 424.708 253.772C424.708 257.496 425.613 261.006 427.214 264.086C429.23 267.967 432.348 271.167 436.145 273.256C439.234 274.956 442.773 275.921 446.533 275.921ZM446.533 267.501C454.005 267.501 460.062 261.354 460.062 253.772C460.062 246.19 454.005 240.043 446.533 240.043C439.062 240.043 433.005 246.19 433.005 253.772C433.005 261.354 439.062 267.501 446.533 267.501Z" fill="#018196"/>
<path d="M436.145 273.256C432.348 271.167 429.23 267.967 427.214 264.086C427.211 264.092 427.207 264.097 427.204 264.102L421.662 273.869C421.309 274.492 421.452 275.283 422.002 275.736L426.646 279.571C427.175 280.009 427.934 280.009 428.465 279.573L436.145 273.256Z" fill="#018196"/>
</g>
<path d="M160.03 93.1419C160.433 91.3072 162.058 90 163.937 90L180.541 90C182.514 90 184.192 91.4381 184.494 93.3874L188.418 118.707C188.794 121.133 186.916 123.322 184.461 123.319L158.378 123.291C155.824 123.289 153.927 120.927 154.475 118.433L160.03 93.1419Z" fill="#53C8B5"/>
<path d="M104.105 126.086C103.086 124.508 103.303 122.433 104.626 121.099L116.32 109.311C117.71 107.911 119.912 107.732 121.509 108.891L142.248 123.937C144.235 125.378 144.466 128.253 142.735 129.994L124.346 148.492C122.546 150.303 119.533 149.986 118.148 147.841L104.105 126.086Z" fill="#53C8B5"/>
<path d="M87.0626 187.882C85.2364 187.441 83.9626 185.79 84.0008 183.912L84.3391 167.31C84.3792 165.338 85.8512 163.689 87.8063 163.427L113.2 160.02C115.634 159.693 117.784 161.615 117.731 164.07L117.172 190.147C117.117 192.7 114.718 194.549 112.236 193.95L87.0626 187.882Z" fill="#53C8B5"/>
<path d="M174.479 264.447C174.037 266.367 172.262 267.679 170.297 267.539L154.045 266.383C152.031 266.24 150.44 264.619 150.334 262.603L148.658 230.762C148.528 228.287 150.658 226.29 153.12 226.58L177.977 229.504C180.342 229.782 181.942 232.053 181.407 234.375L174.479 264.447Z" fill="#53C8B5"/>
<path d="M229.691 242.943C230.377 244.711 229.728 246.718 228.135 247.749L214.257 256.731C212.588 257.811 210.381 257.502 209.072 256.006L188.993 233.051C187.374 231.2 187.793 228.341 189.874 227.031L212.805 212.607C214.933 211.268 217.754 212.201 218.664 214.545L229.691 242.943Z" fill="#53C8B5"/>
<path d="M258.742 178.318C260.531 178.952 261.628 180.756 261.367 182.636L259.097 199.04C258.827 200.995 257.171 202.46 255.197 202.491L225.706 202.951C223.209 202.99 221.287 200.757 221.698 198.294L226.125 171.733C226.534 169.278 229.062 167.789 231.407 168.621L258.742 178.318Z" fill="#53C8B5"/>
<path d="M232.814 115.121C234.541 114.384 236.549 114.948 237.64 116.477L247.283 129.992C248.429 131.599 248.232 133.802 246.819 135.179L227.555 153.959C225.867 155.604 223.13 155.441 221.65 153.606L204.73 132.64C203.064 130.576 203.833 127.491 206.273 126.449L232.814 115.121Z" fill="#53C8B5"/>
<path fill-rule="evenodd" clip-rule="evenodd" d="M171.409 237.286C204.822 237.286 231.909 210.199 231.909 176.786C231.909 143.373 204.822 116.286 171.409 116.286C137.996 116.286 110.909 143.373 110.909 176.786C110.909 186.959 113.42 196.546 117.856 204.96C123.444 215.56 132.087 224.299 142.614 230.007C151.176 234.649 160.985 237.286 171.409 237.286ZM171.409 214.286C192.12 214.286 208.909 197.497 208.909 176.786C208.909 156.075 192.12 139.286 171.409 139.286C150.698 139.286 133.909 156.075 133.909 176.786C133.909 197.497 150.698 214.286 171.409 214.286Z" fill="#53C8B5"/>
<path d="M142.614 230.007C132.087 224.299 123.444 215.56 117.856 204.96C117.847 204.974 117.839 204.989 117.83 205.004L102.466 231.683C101.487 233.383 101.886 235.543 103.408 236.781L116.281 247.257C117.749 248.452 119.854 248.454 121.324 247.262L142.614 230.007Z" fill="#53C8B5"/>
<path fill-rule="evenodd" clip-rule="evenodd" d="M315.5 180C347.256 180 373 155.152 373 124.5C373 93.8482 347.256 69 315.5 69C283.744 69 258 93.8482 258 124.5C258 155.152 283.744 180 315.5 180ZM315 168.417C340.405 168.417 361 148.539 361 124.017C361 99.4959 340.405 79.6174 315 79.6174C289.595 79.6174 269 99.4959 269 124.017C269 148.539 289.595 168.417 315 168.417Z" fill="#036F86"/>
<path d="M372.5 124.5C372.5 154.859 346.997 179.5 315.5 179.5C284.003 179.5 258.5 154.859 258.5 124.5C258.5 94.1409 284.003 69.5 315.5 69.5C346.997 69.5 372.5 94.1409 372.5 124.5ZM315 168.917C340.664 168.917 361.5 148.832 361.5 124.017C361.5 99.2033 340.664 79.1174 315 79.1174C289.336 79.1174 268.5 99.2033 268.5 124.017C268.5 148.832 289.336 168.917 315 168.917Z" stroke="black" stroke-opacity="0.05"/>
<path fill-rule="evenodd" clip-rule="evenodd" d="M315.588 94.0976C316.692 94.1445 317.547 95.0461 317.498 96.1112L316.202 124.468L334.196 109.524C335.033 108.828 336.296 108.92 337.016 109.728C337.736 110.536 337.642 111.755 336.804 112.45L315.304 130.307C314.7 130.809 313.844 130.916 313.126 130.58C312.409 130.244 311.967 129.528 312.002 128.758L313.502 95.941C313.551 94.8759 314.485 94.0506 315.588 94.0976Z" fill="#036F86" stroke="black" stroke-opacity="0.05" stroke-width="0.5" stroke-linecap="round" stroke-linejoin="round"/>
<path d="M469 102.5C469 127.077 449.077 147 424.5 147C423.252 147 422.015 146.949 420.793 146.848L403.372 174.996L368 153.105L385.759 124.41C382.093 117.942 380 110.466 380 102.5C380 77.9233 399.923 58 424.5 58C427.848 58 431.11 58.3698 434.247 59.0707C435.54 59.3596 436.113 60.8405 435.417 61.9677L428.078 73.852C427.485 74.8126 426.214 75.0921 425.273 74.4692L416.623 68.747C416 68.3344 415.16 68.5056 414.747 69.1292C414.334 69.7528 414.506 70.5928 415.129 71.0053L423.954 76.8432C424.855 77.4392 425.119 78.6429 424.552 79.562L423.41 81.4104C422.817 82.371 421.547 82.6505 420.605 82.0275L412.623 76.747C412 76.3345 411.16 76.5056 410.747 77.1292C410.334 77.7528 410.506 78.5928 411.129 79.0053L419.286 84.4015C420.187 84.9976 420.452 86.2013 419.884 87.1204L419.62 87.5488C419.026 88.5095 417.756 88.7889 416.815 88.166L408.623 82.747C408 82.3345 407.16 82.5056 406.747 83.1292C406.334 83.7528 406.506 84.5928 407.129 85.0053L415.495 90.54C416.396 91.136 416.661 92.3397 416.094 93.2589L408.315 105.856C407.731 106.8 406.49 107.089 405.55 106.499L383.586 92.7195C382.953 92.3221 382.117 92.5135 381.72 93.1469C381.322 93.7803 381.513 94.6159 382.147 95.0133L405.827 109.87C405.831 109.872 405.832 109.876 405.83 109.88C405.827 109.883 405.828 109.888 405.832 109.89L417.688 117.212C424.599 121.48 433.662 119.337 437.931 112.425L439.934 109.18C440.528 108.22 441.798 107.94 442.739 108.563L449.264 112.88C449.888 113.292 450.728 113.121 451.14 112.497C451.553 111.874 451.382 111.034 450.758 110.621L444.059 106.189C443.158 105.593 442.893 104.39 443.46 103.47L443.725 103.042C444.318 102.081 445.589 101.802 446.53 102.425L453.264 106.88C453.888 107.292 454.728 107.121 455.14 106.497C455.553 105.874 455.382 105.034 454.758 104.621L447.849 100.051C446.948 99.4548 446.684 98.2511 447.251 97.3319L448.393 95.4836C448.986 94.523 450.256 94.2435 451.198 94.8664L457.264 98.8796C457.888 99.2922 458.728 99.1211 459.14 98.4975C459.553 97.8738 459.382 97.0338 458.758 96.6213L452.517 92.4924C451.616 91.8964 451.351 90.6927 451.919 89.7736L458.791 78.6453C459.535 77.44 461.259 77.3725 462.022 78.5661C466.44 85.477 469 93.6895 469 102.5Z" fill="#53C8B5"/>
<path d="M413.556 262H209.92C205.993 262 202.314 263.922 200.071 267.145L172 307.477C170.809 309.189 170.862 311.474 172.132 313.128C173.038 314.308 174.441 315 175.929 315H450.251C451.594 315 452.804 314.189 453.315 312.947C453.742 311.908 453.614 310.723 452.973 309.8L423.418 267.164C421.176 263.929 417.491 262 413.556 262Z" fill="#0F697F"/>
<path d="M410.389 255H211.597C207.489 255 203.666 257.102 201.465 260.57L173.836 304.106C172.724 305.859 172.775 308.108 173.965 309.808C174.927 311.182 176.499 312 178.176 312H446.512C448.009 312 449.348 311.072 449.874 309.671C450.268 308.618 450.147 307.442 449.547 306.492L420.532 260.588C418.333 257.109 414.505 255 410.389 255Z" fill="#018196"/>
<path d="M211.238 289L213.299 281.969H203.846L201 289H211.238Z" fill="#02697F"/>
<path d="M216.047 272.594H207.641L203.846 281.969H213.299L216.047 272.594Z" fill="#02697F"/>
<path d="M218.246 265.094H210.676L207.641 272.594H216.047L218.246 265.094Z" fill="#02697F"/>
<path d="M225.048 272.594H234.558L237.006 265.094H227.341L225.048 272.594Z" fill="#02697F"/>
<path d="M218.246 265.094L216.047 272.594H225.048L227.341 265.094H218.246Z" fill="#02697F"/>
<path d="M238.995 259H213.143L210.676 265.094H218.246H227.341H237.006L238.995 259Z" fill="#02697F"/>
<path d="M248.222 259H238.995L237.006 265.094H246.348L248.222 259Z" fill="#02697F"/>
<path d="M257.449 259H248.222L246.348 265.094H255.575L257.449 259Z" fill="#02697F"/>
<path d="M265.591 259H257.449L255.575 265.094H263.937L265.591 259Z" fill="#02697F"/>
<path d="M274.275 259H265.591L263.937 265.094H272.581L274.275 259Z" fill="#02697F"/>
<path d="M282.417 259H274.275L272.581 265.094H281.204L282.417 259Z" fill="#02697F"/>
<path d="M291.644 259H282.417L281.204 265.094H290.652L291.644 259Z" fill="#02697F"/>
<path d="M279.712 272.594H289.431L290.652 265.094H281.204L279.712 272.594Z" fill="#02697F"/>
<path d="M272.581 265.094L270.497 272.594H279.712L281.204 265.094H272.581Z" fill="#02697F"/>
<path d="M263.937 265.094L261.902 272.594H270.497L272.581 265.094H263.937Z" fill="#02697F"/>
<path d="M255.575 265.094L253.268 272.594H261.902L263.937 265.094H255.575Z" fill="#02697F"/>
<path d="M237.006 265.094L234.558 272.594H244.041L246.348 265.094H237.006Z" fill="#02697F"/>
<path d="M255.575 265.094H246.348L244.041 272.594H253.268L255.575 265.094Z" fill="#02697F"/>
<path d="M231.498 281.969H241.157L244.041 272.594H234.558L231.498 281.969Z" fill="#02697F"/>
<path d="M250.384 281.969L253.268 272.594H244.041L241.157 281.969H250.384Z" fill="#02697F"/>
<path d="M216.047 272.594L213.299 281.969H222.182L225.048 272.594H216.047Z" fill="#02697F"/>
<path d="M234.558 272.594H225.048L222.182 281.969H231.498L234.558 272.594Z" fill="#02697F"/>
<path d="M211.238 289H220.032L222.182 281.969H213.299L211.238 289Z" fill="#02697F"/>
<path d="M220.032 289H229.204L231.498 281.969H222.182L220.032 289Z" fill="#02697F"/>
<path d="M229.204 289H238.995L241.157 281.969H231.498L229.204 289Z" fill="#02697F"/>
<path d="M238.995 289H248.222L250.384 281.969H241.157L238.995 289Z" fill="#02697F"/>
<path d="M259.357 281.969L261.902 272.594H253.268L250.384 281.969H259.357Z" fill="#02697F"/>
<path d="M248.222 289H257.449L259.357 281.969H250.384L248.222 289Z" fill="#02697F"/>
<path d="M267.891 281.969L270.497 272.594H261.902L259.357 281.969H267.891Z" fill="#02697F"/>
<path d="M257.449 289H265.937L267.891 281.969H259.357L257.449 289Z" fill="#02697F"/>
<path d="M276.446 289L277.846 281.969H267.891L265.937 289H276.446Z" fill="#02697F"/>
<path d="M279.712 272.594H270.497L267.891 281.969H277.846L279.712 272.594Z" fill="#02697F"/>
<path d="M289.431 272.594H279.712L277.846 281.969H287.904L289.431 272.594Z" fill="#02697F"/>
<path d="M276.446 289H286.759L287.904 281.969H277.846L276.446 289Z" fill="#02697F"/>
<path d="M357.202 259H315.775V265.094H327.23H338.686H349.454H358.465L357.202 259Z" fill="#02697F"/>
<path d="M315.775 272.594H327.229L327.23 265.094H315.775V272.594Z" fill="#02697F"/>
<path d="M338.686 265.094H327.23L327.229 272.594H338.685L338.686 265.094Z" fill="#02697F"/>
<path d="M349.454 265.094H338.686L338.685 272.594H349.979L349.454 265.094Z" fill="#02697F"/>
<path d="M358.465 265.094H349.454L349.979 272.594H360.019L358.465 265.094Z" fill="#02697F"/>
<path d="M350.634 281.969H361.963L360.019 272.594H349.979L350.634 281.969Z" fill="#02697F"/>
<path d="M423.268 281.969L417.84 272.594H411.184L416.288 281.969H423.268Z" fill="#02697F"/>
<path d="M417.84 272.594L413.498 265.094H407.102L411.184 272.594H417.84Z" fill="#02697F"/>
<path d="M401.297 272.594H411.184L407.102 265.094H397.513L401.297 272.594Z" fill="#02697F"/>
<path d="M408.628 259H394.439L397.513 265.094H407.102H413.498L410.57 260.036C410.202 259.401 409.451 259 408.628 259Z" fill="#02697F"/>
<path d="M394.439 259H376.172L378.935 265.094H388.601H397.513L394.439 259Z" fill="#02697F"/>
<path d="M425.768 286.286L423.268 281.969H416.288L420.115 289H423.826C425.44 289 426.49 287.533 425.768 286.286Z" fill="#02697F"/>
<path d="M416.288 281.969H406.027L409.574 289H420.115L416.288 281.969Z" fill="#02697F"/>
<path d="M406.027 281.969H396.081L399.197 289H409.574L406.027 281.969Z" fill="#02697F"/>
<path d="M375.33 281.969L377.878 289H389.775L386.586 281.969H375.33Z" fill="#02697F"/>
<path d="M391.925 272.594H382.336L386.586 281.969H396.081L391.925 272.594Z" fill="#02697F"/>
<path d="M399.197 289L396.081 281.969H386.586L389.775 289H399.197Z" fill="#02697F"/>
<path d="M406.027 281.969L401.297 272.594H391.925L396.081 281.969H406.027Z" fill="#02697F"/>
<path d="M416.288 281.969L411.184 272.594H401.297L406.027 281.969H416.288Z" fill="#02697F"/>
<path d="M401.297 272.594L397.513 265.094H388.601L391.925 272.594H401.297Z" fill="#02697F"/>
<path d="M388.601 265.094H378.935L382.336 272.594H391.925L388.601 265.094Z" fill="#02697F"/>
<path d="M378.935 265.094H369.216L371.933 272.594H382.336L378.935 265.094Z" fill="#02697F"/>
<path d="M358.465 265.094L360.019 272.594H371.933L369.216 265.094H358.465Z" fill="#02697F"/>
<path d="M376.172 259H357.202L358.465 265.094H369.216H378.935L376.172 259Z" fill="#02697F"/>
<path d="M360.019 272.594L361.963 281.969H375.33L371.933 272.594H360.019Z" fill="#02697F"/>
<path d="M375.33 281.969H386.586L382.336 272.594H371.933L375.33 281.969Z" fill="#02697F"/>
<path d="M361.963 281.969H350.634L351.126 289H377.878L375.33 281.969H361.963Z" fill="#02697F"/>
<path d="M338.683 281.969L338.682 289H351.126L350.634 281.969H338.683Z" fill="#02697F"/>
<path d="M349.979 272.594H338.685L338.683 281.969H350.634L349.979 272.594Z" fill="#02697F"/>
<path d="M327.229 272.594L327.227 281.969H338.683L338.685 272.594H327.229Z" fill="#02697F"/>
<path d="M338.682 289L338.683 281.969H327.227L327.226 289H338.682Z" fill="#02697F"/>
<path d="M315.775 281.969V289H327.226L327.227 281.969H315.775Z" fill="#02697F"/>
<path d="M327.229 272.594H315.775V281.969H327.227L327.229 272.594Z" fill="#02697F"/>
<path d="M315.775 289V281.969H306.299V289H315.775Z" fill="#02697F"/>
<path d="M315.775 272.594H306.299V281.969H315.775V272.594Z" fill="#02697F"/>
<path d="M315.775 265.094H306.299V272.594H315.775V265.094Z" fill="#02697F"/>
<path d="M315.775 265.094V259H306.299V265.094H315.775Z" fill="#02697F"/>
<path d="M298.158 259L297.937 265.094H306.299V259H298.158Z" fill="#02697F"/>
<path d="M297.666 272.594H306.299V265.094H297.937L297.666 272.594Z" fill="#02697F"/>
<path d="M290.652 265.094L289.431 272.594H297.666L297.937 265.094H290.652Z" fill="#02697F"/>
<path d="M291.644 259L290.652 265.094H297.937L298.158 259H291.644Z" fill="#02697F"/>
<path d="M289.431 272.594L287.904 281.969H297.326L297.666 272.594H289.431Z" fill="#02697F"/>
<path d="M306.299 281.969V272.594H297.666L297.326 281.969H306.299Z" fill="#02697F"/>
<path d="M297.072 289H306.299V281.969H297.326L297.072 289Z" fill="#02697F"/>
<path d="M287.904 281.969L286.759 289H297.072L297.326 281.969H287.904Z" fill="#02697F"/>
<path d="M425.768 286.286L424.47 287.038L424.47 287.038L425.768 286.286ZM410.57 260.036L409.272 260.788L409.272 260.788L410.57 260.036ZM213.143 259V257.5H212.132L211.752 258.437L213.143 259ZM221.944 259.529C222.236 258.753 221.844 257.888 221.069 257.596C220.293 257.304 219.428 257.696 219.136 258.471L221.944 259.529ZM230.638 259.439C230.88 258.646 230.434 257.808 229.642 257.566C228.85 257.323 228.011 257.769 227.769 258.561L230.638 259.439ZM328.73 259.033C328.73 258.204 328.058 257.533 327.23 257.533C326.401 257.533 325.73 258.204 325.73 259.033H328.73ZM340.186 259C340.186 258.172 339.514 257.5 338.686 257.5C337.857 257.5 337.186 258.172 337.186 259H340.186ZM350.535 258.898C350.478 258.071 349.763 257.447 348.936 257.503C348.11 257.56 347.485 258.276 347.542 259.102L350.535 258.898ZM362.237 289.358C362.435 290.163 363.247 290.655 364.052 290.457C364.856 290.259 365.348 289.446 365.15 288.642L362.237 289.358ZM368.418 258.489C368.136 257.71 367.276 257.308 366.497 257.59C365.718 257.872 365.316 258.732 365.598 259.511L368.418 258.489ZM387.271 258.392C386.935 257.635 386.049 257.293 385.292 257.629C384.534 257.964 384.193 258.85 384.528 259.608L387.271 258.392ZM405.102 258.283C404.706 257.555 403.795 257.286 403.067 257.683C402.34 258.079 402.071 258.99 402.467 259.717L405.102 258.283ZM413.498 265.094L414.796 264.342L414.796 264.342L413.498 265.094ZM423.268 281.969L424.566 281.217L424.566 281.217L423.268 281.969ZM201 289L199.61 288.437C199.422 288.9 199.477 289.425 199.756 289.838C200.035 290.252 200.501 290.5 201 290.5V289ZM210.676 265.094L209.286 264.531L209.286 264.531L210.676 265.094ZM409.272 260.788L424.47 287.038L427.066 285.535L411.868 259.285L409.272 260.788ZM424.47 287.038C424.502 287.094 424.5 287.122 424.5 287.131C424.499 287.146 424.492 287.184 424.453 287.238C424.375 287.346 424.175 287.5 423.826 287.5V290.5C425.091 290.5 426.223 289.92 426.893 288.984C427.578 288.026 427.749 286.714 427.066 285.535L424.47 287.038ZM408.628 260.5C408.993 260.5 409.209 260.68 409.272 260.788L411.868 259.285C411.196 258.123 409.908 257.5 408.628 257.5V260.5ZM212.677 289.422L214.738 282.391L211.86 281.547L209.799 288.578L212.677 289.422ZM213.299 280.469H203.846V283.469H213.299V280.469ZM202.456 281.406L199.61 288.437L202.39 289.563L205.236 282.532L202.456 281.406ZM201 290.5H211.238V287.5H201V290.5ZM216.047 271.094H207.641V274.094H216.047V271.094ZM206.25 272.031L202.456 281.406L205.236 282.532L209.031 273.157L206.25 272.031ZM214.738 282.391L217.487 273.016L214.608 272.172L211.86 281.547L214.738 282.391ZM218.246 263.594H210.676V266.594H218.246V263.594ZM209.286 264.531L206.25 272.031L209.031 273.157L212.067 265.657L209.286 264.531ZM217.487 273.016L219.685 265.516L216.806 264.672L214.608 272.172L217.487 273.016ZM211.752 258.437L209.286 264.531L212.067 265.657L214.533 259.563L211.752 258.437ZM219.136 258.471L216.842 264.565L219.649 265.622L221.944 259.529L219.136 258.471ZM238.995 257.5H213.143V260.5H238.995V257.5ZM218.246 266.594H227.341V263.594H218.246V266.594ZM227.341 266.594H237.006V263.594H227.341V266.594ZM238.432 265.559L240.421 259.465L237.569 258.535L235.58 264.628L238.432 265.559ZM227.769 258.561L225.906 264.655L228.775 265.532L230.638 259.439L227.769 258.561ZM225.048 274.094H234.558V271.094H225.048V274.094ZM235.984 273.059L238.432 265.559L235.58 264.628L233.132 272.128L235.984 273.059ZM225.906 264.655L223.613 272.155L226.482 273.032L228.775 265.532L225.906 264.655ZM216.047 274.094H225.048V271.094H216.047V274.094ZM248.222 257.5H238.995V260.5H248.222V257.5ZM237.006 266.594H246.348V263.594H237.006V266.594ZM247.781 265.535L249.656 259.441L246.788 258.559L244.914 264.653L247.781 265.535ZM257.449 257.5H248.222V260.5H257.449V257.5ZM246.348 266.594H255.575V263.594H246.348V266.594ZM257.008 265.535L258.883 259.441L256.015 258.559L254.141 264.653L257.008 265.535ZM265.591 257.5H257.449V260.5H265.591V257.5ZM255.575 266.594H263.937V263.594H255.575V266.594ZM265.385 265.487L267.038 259.393L264.143 258.607L262.489 264.701L265.385 265.487ZM274.275 257.5H265.591V260.5H274.275V257.5ZM263.937 266.594H272.581V263.594H263.937V266.594ZM274.027 265.495L275.72 259.402L272.83 258.598L271.136 264.692L274.027 265.495ZM282.417 257.5H274.275V260.5H282.417V257.5ZM272.581 266.594H281.204V263.594H272.581V266.594ZM282.675 265.387L283.888 259.293L280.946 258.707L279.733 264.801L282.675 265.387ZM291.644 257.5H282.417V260.5H291.644V257.5ZM281.204 266.594H290.652V263.594H281.204V266.594ZM292.132 265.335L293.125 259.241L290.164 258.759L289.171 264.853L292.132 265.335ZM279.712 274.094H289.431V271.094H279.712V274.094ZM290.911 272.835L292.132 265.335L289.171 264.853L287.95 272.353L290.911 272.835ZM279.733 264.801L278.24 272.301L281.183 272.887L282.675 265.387L279.733 264.801ZM271.136 264.692L269.052 272.192L271.942 272.995L274.027 265.495L271.136 264.692ZM270.497 274.094H279.712V271.094H270.497V274.094ZM262.489 264.701L260.454 272.201L263.349 272.987L265.385 265.487L262.489 264.701ZM261.902 274.094H270.497V271.094H261.902V274.094ZM254.141 264.653L251.834 272.153L254.702 273.035L257.008 265.535L254.141 264.653ZM253.268 274.094H261.902V271.094H253.268V274.094ZM234.558 274.094H244.041V271.094H234.558V274.094ZM245.474 273.035L247.781 265.535L244.914 264.653L242.607 272.153L245.474 273.035ZM244.041 274.094H253.268V271.094H244.041V274.094ZM231.498 283.469H241.157V280.469H231.498V283.469ZM242.591 282.41L245.474 273.035L242.607 272.153L239.723 281.528L242.591 282.41ZM233.132 272.128L230.072 281.503L232.924 282.434L235.984 273.059L233.132 272.128ZM239.723 281.528L237.561 288.559L240.428 289.441L242.591 282.41L239.723 281.528ZM230.072 281.503L227.778 288.535L230.63 289.465L232.924 282.434L230.072 281.503ZM251.818 282.41L254.702 273.035L251.834 272.153L248.951 281.528L251.818 282.41ZM241.157 283.469H250.384V280.469H241.157V283.469ZM248.951 281.528L246.788 288.559L249.656 289.441L251.818 282.41L248.951 281.528ZM213.299 283.469H222.182V280.469H213.299V283.469ZM223.616 282.407L226.482 273.032L223.613 272.155L220.747 281.53L223.616 282.407ZM222.182 283.469H231.498V280.469H222.182V283.469ZM220.747 281.53L218.597 288.561L221.466 289.439L223.616 282.407L220.747 281.53ZM211.238 290.5H220.032V287.5H211.238V290.5ZM220.032 290.5H229.204V287.5H220.032V290.5ZM229.204 290.5H238.995V287.5H229.204V290.5ZM238.995 290.5H248.222V287.5H238.995V290.5ZM260.805 282.362L263.349 272.987L260.454 272.201L257.91 281.576L260.805 282.362ZM250.384 283.469H259.357V280.469H250.384V283.469ZM257.91 281.576L256.001 288.607L258.897 289.393L260.805 282.362L257.91 281.576ZM248.222 290.5H257.449V287.5H248.222V290.5ZM269.336 282.37L271.942 272.995L269.052 272.192L266.446 281.567L269.336 282.37ZM259.357 283.469H267.891V280.469H259.357V283.469ZM257.449 290.5H265.937V287.5H257.449V290.5ZM267.382 289.402L269.336 282.37L266.446 281.567L264.491 288.598L267.382 289.402ZM265.937 287.5H201V290.5H265.937V287.5ZM277.917 289.293L279.317 282.262L276.375 281.676L274.975 288.707L277.917 289.293ZM277.846 280.469H267.891V283.469H277.846V280.469ZM265.937 290.5H276.446V287.5H265.937V290.5ZM278.24 272.301L276.375 281.676L279.317 282.262L281.183 272.887L278.24 272.301ZM277.846 283.469H287.904V280.469H277.846V283.469ZM289.385 282.21L290.911 272.835L287.95 272.353L286.424 281.728L289.385 282.21ZM286.424 281.728L285.279 288.759L288.24 289.241L289.385 282.21L286.424 281.728ZM276.446 290.5H286.759V287.5H276.446V290.5ZM357.202 257.5H315.775V260.5H357.202V257.5ZM314.275 259V265.094H317.275V259H314.275ZM315.775 266.594H327.23V263.594H315.775V266.594ZM327.23 266.594H338.686V263.594H327.23V266.594ZM338.686 266.594H349.454V263.594H338.686V266.594ZM349.454 266.594H358.465V263.594H349.454V266.594ZM359.934 264.789L358.671 258.696L355.733 259.304L356.996 265.398L359.934 264.789ZM337.186 259V265.094H340.186V259H337.186ZM325.73 259.033V265.094H328.73V259.033H325.73ZM347.542 259.102L347.957 265.196L350.95 264.992L350.535 258.898L347.542 259.102ZM315.775 274.094H327.229V271.094H315.775V274.094ZM328.729 272.594L328.73 265.094L325.73 265.094L325.729 272.594L328.729 272.594ZM314.275 265.094V272.594H317.275V265.094H314.275ZM327.229 274.094H338.685V271.094H327.229V274.094ZM340.185 272.594L340.186 265.094L337.186 265.094L337.185 272.594L340.185 272.594ZM338.685 274.094H349.979V271.094H338.685V274.094ZM351.475 272.489L350.95 264.989L347.958 265.198L348.482 272.698L351.475 272.489ZM349.979 274.094H360.019V271.094H349.979V274.094ZM361.488 272.289L359.934 264.789L356.996 265.398L358.551 272.898L361.488 272.289ZM350.634 283.469H361.963V280.469H350.634V283.469ZM363.431 281.664L361.488 272.289L358.551 272.898L360.494 282.273L363.431 281.664ZM348.482 272.698L349.138 282.073L352.131 281.864L351.475 272.489L348.482 272.698ZM360.506 282.327L362.237 289.358L365.15 288.642L363.419 281.61L360.506 282.327ZM424.566 281.217L419.139 271.842L416.542 273.345L421.97 282.72L424.566 281.217ZM417.84 271.094H411.184V274.094H417.84V271.094ZM409.867 273.311L414.97 282.686L417.605 281.252L412.502 271.877L409.867 273.311ZM416.288 283.469H423.268V280.469H416.288V283.469ZM399.958 273.269L404.687 282.644L407.366 281.293L402.636 271.918L399.958 273.269ZM406.027 283.469H416.288V280.469H406.027V283.469ZM411.184 271.094H401.297V274.094H411.184V271.094ZM419.139 271.842L414.796 264.342L412.2 265.845L416.542 273.345L419.139 271.842ZM413.498 263.594H407.102V266.594H413.498V263.594ZM405.784 265.811L409.867 273.311L412.502 271.877L408.419 264.377L405.784 265.811ZM402.467 259.717L405.784 265.811L408.419 264.377L405.102 258.283L402.467 259.717ZM407.102 263.594H397.513V266.594H407.102V263.594ZM396.174 265.769L399.958 273.269L402.636 271.918L398.852 264.418L396.174 265.769ZM393.1 259.676L396.174 265.769L398.852 264.418L395.778 258.324L393.1 259.676ZM408.628 257.5H394.439V260.5H408.628V257.5ZM414.796 264.342L411.868 259.285L409.272 260.788L412.2 265.845L414.796 264.342ZM394.439 257.5H376.172V260.5H394.439V257.5ZM374.806 259.619L377.569 265.713L380.301 264.474L377.538 258.381L374.806 259.619ZM378.935 266.594H388.601V263.594H378.935V266.594ZM388.601 266.594H397.513V263.594H388.601V266.594ZM384.528 259.608L387.229 265.702L389.972 264.486L387.271 258.392L384.528 259.608ZM427.066 285.535L424.566 281.217L421.97 282.72L424.47 287.038L427.066 285.535ZM414.97 282.686L418.798 289.717L421.433 288.283L417.605 281.252L414.97 282.686ZM420.115 290.5H423.826V287.5H420.115V290.5ZM404.687 282.644L408.235 289.676L410.913 288.324L407.366 281.293L404.687 282.644ZM409.574 290.5H420.115V287.5H409.574V290.5ZM406.027 280.469H396.081V283.469H406.027V280.469ZM394.709 282.577L397.826 289.608L400.569 288.392L397.452 281.361L394.709 282.577ZM399.197 290.5H409.574V287.5H399.197V290.5ZM373.92 282.48L376.468 289.511L379.288 288.489L376.741 281.458L373.92 282.48ZM377.878 290.5H389.775V287.5H377.878V290.5ZM391.141 288.381L387.953 281.349L385.22 282.588L388.408 289.619L391.141 288.381ZM386.586 280.469H375.33V283.469H386.586V280.469ZM399.197 287.5H389.775V290.5H399.197V287.5ZM361.963 283.469H375.33V280.469H361.963V283.469ZM386.586 283.469H396.081V280.469H386.586V283.469ZM391.925 271.094H382.336V274.094H391.925V271.094ZM380.969 273.213L385.22 282.588L387.953 281.349L383.702 271.974L380.969 273.213ZM397.452 281.361L393.296 271.986L390.554 273.202L394.709 282.577L397.452 281.361ZM377.569 265.713L380.969 273.213L383.702 271.974L380.301 264.474L377.569 265.713ZM387.229 265.702L390.554 273.202L393.296 271.986L389.972 264.486L387.229 265.702ZM391.925 274.094H401.297V271.094H391.925V274.094ZM378.935 263.594H369.216V266.594H378.935V263.594ZM367.806 265.605L370.523 273.105L373.344 272.083L370.626 264.583L367.806 265.605ZM371.933 274.094H382.336V271.094H371.933V274.094ZM360.019 274.094H371.933V271.094H360.019V274.094ZM365.598 259.511L367.806 265.605L370.626 264.583L368.418 258.489L365.598 259.511ZM370.523 273.105L373.92 282.48L376.741 281.458L373.344 272.083L370.523 273.105ZM358.465 266.594H369.216V263.594H358.465V266.594ZM376.172 257.5H357.202V260.5H376.172V257.5ZM349.138 282.073L349.63 289.105L352.623 288.895L352.131 281.864L349.138 282.073ZM351.126 290.5H377.878V287.5H351.126V290.5ZM337.183 281.969L337.182 289L340.182 289L340.183 281.969L337.183 281.969ZM338.682 290.5H351.126V287.5H338.682V290.5ZM350.634 280.469H338.683V283.469H350.634V280.469ZM337.185 272.594L337.183 281.969L340.183 281.969L340.185 272.594L337.185 272.594ZM325.729 272.594L325.727 281.969L328.727 281.969L328.729 272.594L325.729 272.594ZM327.227 283.469H338.683V280.469H327.227V283.469ZM325.727 281.969L325.726 289L328.726 289L328.727 281.969L325.727 281.969ZM327.226 290.5H338.682V287.5H327.226V290.5ZM314.275 281.969V289H317.275V281.969H314.275ZM315.775 290.5H327.226V287.5H315.775V290.5ZM327.227 280.469H315.775V283.469H327.227V280.469ZM314.275 272.594V281.969H317.275V272.594H314.275ZM213.143 260.5H298.158V257.5H213.143V260.5ZM297.072 287.5H265.937V290.5H297.072V287.5ZM298.158 260.5H306.299V257.5H298.158V260.5ZM306.299 260.5H408.628V257.5H306.299V260.5ZM327.226 287.5H306.299V290.5H327.226V287.5ZM306.299 287.5H297.072V290.5H306.299V287.5ZM315.775 280.469H306.299V283.469H315.775V280.469ZM304.799 281.969V289H307.799V281.969H304.799ZM306.299 290.5H315.775V287.5H306.299V290.5ZM315.775 271.094H306.299V274.094H315.775V271.094ZM304.799 272.594V281.969H307.799V272.594H304.799ZM315.775 263.594H306.299V266.594H315.775V263.594ZM304.799 265.094V272.594H307.799V265.094H304.799ZM304.799 259V265.094H307.799V259H304.799ZM315.775 257.5H306.299V260.5H315.775V257.5ZM296.659 258.946L296.438 265.04L299.436 265.148L299.657 259.054L296.659 258.946ZM297.937 266.594H306.299V263.594H297.937V266.594ZM290.652 266.594H297.937V263.594H290.652V266.594ZM297.666 274.094H306.299V271.094H297.666V274.094ZM296.438 265.04L296.167 272.54L299.165 272.648L299.436 265.148L296.438 265.04ZM289.431 274.094H297.666V271.094H289.431V274.094ZM298.158 257.5H291.644V260.5H298.158V257.5ZM287.904 283.469H297.326V280.469H287.904V283.469ZM298.825 282.023L299.165 272.648L296.167 272.54L295.827 281.915L298.825 282.023ZM295.827 281.915L295.573 288.946L298.571 289.054L298.825 282.023L295.827 281.915ZM297.326 283.469H306.299V280.469H297.326V283.469ZM286.759 290.5H297.072V287.5H286.759V290.5Z" fill="#018196"/>
<path d="M261.854 294.004C262.308 292.236 263.902 291 265.728 291H356.757C358.289 291 359.686 291.875 360.355 293.253L365.21 303.253C366.5 305.91 364.565 309 361.612 309H263.158C260.545 309 258.633 306.535 259.284 304.004L261.854 294.004Z" fill="#02697F"/>
<path d="M208 148C208 145.791 209.863 144 212.161 144H410.839C413.137 144 415 145.791 415 148V251C415 253.209 413.137 255 410.839 255H212.161C209.863 255 208 253.209 208 251V148Z" fill="white"/>
<path fill-rule="evenodd" clip-rule="evenodd" d="M216.322 145.505V246.495H406.678V145.505H216.322ZM212.161 137C209.863 137 208 138.904 208 141.252V250.748C208 253.096 209.863 255 212.161 255H410.839C413.137 255 415 253.096 415 250.748V141.252C415 138.904 413.137 137 410.839 137H212.161Z" fill="#0F697F"/>
<path d="M215.822 246.495V246.995H216.322H406.678H407.178V246.495V145.505V145.005H406.678H216.322H215.822V145.505V246.495ZM208.5 141.252C208.5 139.17 210.149 137.5 212.161 137.5H410.839C412.851 137.5 414.5 139.17 414.5 141.252V250.748C414.5 252.83 412.851 254.5 410.839 254.5H212.161C210.149 254.5 208.5 252.83 208.5 250.748V141.252Z" stroke="black" stroke-opacity="0.05"/>
<rect x="302" y="153" width="93" height="86" rx="2" fill="#CCECE6"/>
<rect x="302.5" y="153.5" width="92" height="85" rx="1.5" stroke="black" stroke-opacity="0.05"/>
<rect x="232" y="157" width="39" height="36" rx="1" fill="#CCECE6"/>
<rect x="232.5" y="157.5" width="38" height="35" rx="0.5" stroke="black" stroke-opacity="0.1"/>
<rect x="287" y="153" width="5" height="86" rx="1" fill="#CCECE6"/>
<rect x="287.5" y="153.5" width="4" height="85" rx="0.5" stroke="black" stroke-opacity="0.03"/>
<rect x="225" y="209" width="5" height="54" rx="1" transform="rotate(-90 225 209)" fill="#CCECE6"/>
<rect x="225.5" y="208.5" width="4" height="53" rx="0.5" transform="rotate(-90 225.5 208.5)" stroke="black" stroke-opacity="0.05"/>
<rect x="225" y="217" width="5" height="54" rx="1" transform="rotate(-90 225 217)" fill="#CCECE6"/>
<rect x="225.5" y="216.5" width="4" height="53" rx="0.5" transform="rotate(-90 225.5 216.5)" stroke="black" stroke-opacity="0.05"/>
<rect x="225" y="225" width="5" height="54" rx="1" transform="rotate(-90 225 225)" fill="#CCECE6"/>
<rect x="225.5" y="224.5" width="4" height="53" rx="0.5" transform="rotate(-90 225.5 224.5)" stroke="black" stroke-opacity="0.05"/>
<path d="M311.5 144C312.881 144 314 142.881 314 141.5C314 140.119 312.881 139 311.5 139C310.119 139 309 140.119 309 141.5C309 142.881 310.119 144 311.5 144Z" fill="white"/>
<path d="M313.5 141.5C313.5 142.605 312.605 143.5 311.5 143.5C310.395 143.5 309.5 142.605 309.5 141.5C309.5 140.395 310.395 139.5 311.5 139.5C312.605 139.5 313.5 140.395 313.5 141.5Z" stroke="black" stroke-opacity="0.2"/>
<path d="M322.839 233.895C322.393 233.493 322.398 232.792 322.85 232.398L334.805 221.959C335.454 221.392 336.469 221.858 336.462 222.72L336.415 229.279C336.411 229.834 336.86 230.286 337.415 230.286H388.885C389.437 230.286 389.885 229.839 389.885 229.286V208.626C389.885 207.176 391.03 206 392.442 206C393.855 206 395 207.176 395 208.626V232.912C395 234.362 393.855 235.538 392.442 235.538H337.363C336.814 235.538 336.367 235.981 336.363 236.53L336.311 243.777C336.305 244.639 335.283 245.09 334.642 244.513L322.839 233.895Z" fill="#036881"/>
<path d="M336.415 229.279L336.915 229.283L336.415 229.279ZM336.363 236.53L335.863 236.527L336.363 236.53ZM334.642 244.513L334.308 244.885L334.642 244.513ZM336.311 243.777L335.811 243.773L336.311 243.777ZM334.805 221.959L335.134 222.336L334.805 221.959ZM336.462 222.72L335.962 222.716L336.462 222.72ZM322.85 232.398L322.521 232.021L322.85 232.398ZM322.839 233.895L322.504 234.266L322.839 233.895ZM323.179 232.775L335.134 222.336L334.476 221.583L322.521 232.021L323.179 232.775ZM334.977 244.141L323.173 233.523L322.504 234.266L334.308 244.885L334.977 244.141ZM392.442 236.038C394.143 236.038 395.5 234.626 395.5 232.912H394.5C394.5 234.098 393.566 235.038 392.442 235.038V236.038ZM389.385 208.626V229.286H390.385V208.626H389.385ZM392.442 205.5C390.741 205.5 389.385 206.912 389.385 208.626H390.385C390.385 207.439 391.318 206.5 392.442 206.5V205.5ZM395.5 208.626C395.5 206.912 394.143 205.5 392.442 205.5V206.5C393.566 206.5 394.5 207.439 394.5 208.626H395.5ZM395.5 232.912V208.626H394.5V232.912H395.5ZM337.363 236.038H392.442V235.038H337.363V236.038ZM335.863 236.527L335.811 243.773L336.811 243.78L336.863 236.534L335.863 236.527ZM335.962 222.716L335.915 229.276L336.915 229.283L336.962 222.724L335.962 222.716ZM388.885 229.786H337.415V230.786H388.885V229.786ZM335.915 229.276C335.909 230.108 336.583 230.786 337.415 230.786V229.786C337.138 229.786 336.913 229.56 336.915 229.283L335.915 229.276ZM337.363 235.038C336.539 235.038 335.869 235.703 335.863 236.527L336.863 236.534C336.865 236.259 337.088 236.038 337.363 236.038V235.038ZM334.308 244.885C335.269 245.75 336.802 245.074 336.811 243.78L335.811 243.773C335.808 244.204 335.297 244.43 334.977 244.141L334.308 244.885ZM335.134 222.336C335.458 222.053 335.966 222.285 335.962 222.716L336.962 222.724C336.972 221.43 335.45 220.732 334.476 221.583L335.134 222.336ZM389.385 229.286C389.385 229.563 389.161 229.786 388.885 229.786V230.786C389.713 230.786 390.385 230.115 390.385 229.286H389.385ZM322.521 232.021C321.843 232.613 321.835 233.664 322.504 234.266L323.173 233.523C322.95 233.322 322.953 232.972 323.179 232.775L322.521 232.021Z" fill="black" fill-opacity="0.05"/>
<path d="M278.211 162.033C278.67 162.435 278.665 163.151 278.2 163.546L269.425 171.011C268.773 171.565 267.771 171.097 267.777 170.241L267.809 165.977C267.813 165.422 267.364 164.97 266.809 164.97H227C226.448 164.97 226 165.417 226 165.97V181.47C226 182.574 225.105 183.47 224 183.47C222.895 183.47 222 182.574 222 181.47V162.97C222 161.865 222.895 160.97 224 160.97H266.853C267.402 160.97 267.849 160.526 267.853 159.977L267.888 155.184C267.895 154.328 268.904 153.876 269.547 154.44L278.211 162.033Z" fill="#50C8B2"/>
<path d="M267.809 165.977L267.309 165.973L267.809 165.977ZM267.853 159.977L267.353 159.973L267.853 159.977ZM267.888 155.184L267.388 155.181L267.888 155.184ZM269.425 171.011L269.749 171.391L269.425 171.011ZM267.777 170.241L267.277 170.238L267.777 170.241ZM278.211 162.033L278.541 161.657L278.211 162.033ZM277.876 163.166L269.101 170.63L269.749 171.391L278.524 163.927L277.876 163.166ZM269.218 154.816L277.882 162.409L278.541 161.657L269.877 154.064L269.218 154.816ZM224 160.47C222.619 160.47 221.5 161.589 221.5 162.97H222.5C222.5 162.141 223.172 161.47 224 161.47V160.47ZM226.5 181.47V165.97H225.5V181.47H226.5ZM224 183.97C225.381 183.97 226.5 182.85 226.5 181.47H225.5C225.5 182.298 224.828 182.97 224 182.97V183.97ZM221.5 181.47C221.5 182.85 222.619 183.97 224 183.97V182.97C223.172 182.97 222.5 182.298 222.5 181.47H221.5ZM221.5 162.97V181.47H222.5V162.97H221.5ZM266.853 160.47H224V161.47H266.853V160.47ZM268.353 159.981L268.388 155.188L267.388 155.181L267.353 159.973L268.353 159.981ZM268.277 170.245L268.309 165.981L267.309 165.973L267.277 170.238L268.277 170.245ZM227 165.47H266.809V164.47H227V165.47ZM268.309 165.981C268.315 165.148 267.641 164.47 266.809 164.47V165.47C267.086 165.47 267.311 165.696 267.309 165.973L268.309 165.981ZM266.853 161.47C267.677 161.47 268.347 160.805 268.353 159.981L267.353 159.973C267.351 160.248 267.128 160.47 266.853 160.47V161.47ZM269.877 154.064C268.911 153.217 267.398 153.897 267.388 155.181L268.388 155.188C268.391 154.76 268.896 154.534 269.218 154.816L269.877 154.064ZM269.101 170.63C268.775 170.907 268.274 170.673 268.277 170.245L267.277 170.238C267.268 171.522 268.771 172.223 269.749 171.391L269.101 170.63ZM226.5 165.97C226.5 165.694 226.724 165.47 227 165.47V164.47C226.172 164.47 225.5 165.141 225.5 165.97H226.5ZM278.524 163.927C279.222 163.334 279.229 162.26 278.541 161.657L277.882 162.409C278.111 162.61 278.109 162.968 277.876 163.166L278.524 163.927Z" fill="black" fill-opacity="0.05"/>
<rect x="171" y="186" width="65" height="63" rx="5" fill="#4490A2"/>
<rect x="171.5" y="186.5" width="64" height="62" rx="4.5" stroke="black" stroke-opacity="0.05"/>
<rect x="166" y="180" width="65" height="63" rx="5" fill="#036F86"/>
<rect x="166.5" y="180.5" width="64" height="62" rx="4.5" stroke="black" stroke-opacity="0.05"/>
<rect x="170" y="187" width="23" height="23" rx="2" fill="white"/>
<rect x="170.5" y="187.5" width="22" height="22" rx="1.5" stroke="black" stroke-opacity="0.05"/>
<rect x="196" y="192" width="31" height="4" rx="2" fill="white"/>
<rect x="195.5" y="191.5" width="32" height="5" rx="2.5" stroke="black" stroke-opacity="0.05"/>
<rect x="195.5" y="191.5" width="32" height="5" rx="2.5" stroke="black" stroke-opacity="0.05"/>
<rect x="196" y="200" width="31" height="4" rx="2" fill="white"/>
<rect x="195.5" y="199.5" width="32" height="5" rx="2.5" stroke="black" stroke-opacity="0.05"/>
<rect x="195.5" y="199.5" width="32" height="5" rx="2.5" stroke="black" stroke-opacity="0.05"/>
<path d="M173 220C173 218.895 173.895 218 175 218H222C223.105 218 224 218.895 224 220V232C224 233.105 223.105 234 222 234H175C173.895 234 173 233.105 173 232V220Z" fill="#086F85"/>
<path d="M175 218.25H222C222.966 218.25 223.75 219.034 223.75 220V232C223.75 232.966 222.966 233.75 222 233.75H175C174.034 233.75 173.25 232.966 173.25 232V220C173.25 219.034 174.034 218.25 175 218.25Z" stroke="black" stroke-opacity="0.1" stroke-width="0.5"/>
<path fill-rule="evenodd" clip-rule="evenodd" d="M175 216H222C224.209 216 226 217.791 226 220V232C226 234.209 224.209 236 222 236H175C172.791 236 171 234.209 171 232V220C171 217.791 172.791 216 175 216ZM175 218C173.895 218 173 218.895 173 220V232C173 233.105 173.895 234 175 234H222C223.105 234 224 233.105 224 232V220C224 218.895 223.105 218 222 218H175Z" fill="white"/>
<path d="M222 215.75H175C172.653 215.75 170.75 217.653 170.75 220V232C170.75 234.347 172.653 236.25 175 236.25H222C224.347 236.25 226.25 234.347 226.25 232V220C226.25 217.653 224.347 215.75 222 215.75ZM173.25 220C173.25 219.034 174.034 218.25 175 218.25H222C222.966 218.25 223.75 219.034 223.75 220V232C223.75 232.966 222.966 233.75 222 233.75H175C174.034 233.75 173.25 232.966 173.25 232V220Z" stroke="black" stroke-opacity="0.1" stroke-width="0.5"/>
<rect x="357" y="179" width="153" height="47" rx="7" fill="#3D8EA0"/>
<rect x="357.5" y="179.5" width="152" height="46" rx="6.5" stroke="black" stroke-opacity="0.05"/>
<mask id="path-51-inside-1_1_292" fill="white">
<path d="M349 174C349 170.686 351.686 168 355 168H496C499.314 168 502 170.686 502 174V209C502 212.314 499.314 215 496 215H355C351.686 215 349 212.314 349 209V174Z"/>
<path d="M390 191C390 198.732 383.732 205 376 205C368.268 205 362 198.732 362 191C362 183.268 368.268 177 376 177C383.732 177 390 183.268 390 191Z"/>
<path d="M400 182H491V188H400V182Z"/>
<path d="M400 195H491V201H400V195Z"/>
</mask>
<path d="M349 174C349 170.686 351.686 168 355 168H496C499.314 168 502 170.686 502 174V209C502 212.314 499.314 215 496 215H355C351.686 215 349 212.314 349 209V174Z" fill="#53C8B5"/>
<path d="M390 191C390 198.732 383.732 205 376 205C368.268 205 362 198.732 362 191C362 183.268 368.268 177 376 177C383.732 177 390 183.268 390 191Z" fill="#F8F6D9"/>
<path d="M400 182H491V188H400V182Z" fill="#F8F6D9"/>
<path d="M400 195H491V201H400V195Z" fill="#F8F6D9"/>
<path d="M400 182V181H399V182H400ZM491 182H492V181H491V182ZM491 188V189H492V188H491ZM400 188H399V189H400V188ZM400 195V194H399V195H400ZM491 195H492V194H491V195ZM491 201V202H492V201H491ZM400 201H399V202H400V201ZM355 169H496V167H355V169ZM501 174V209H503V174H501ZM496 214H355V216H496V214ZM350 209V174H348V209H350ZM355 214C352.239 214 350 211.761 350 209H348C348 212.866 351.134 216 355 216V214ZM501 209C501 211.761 498.761 214 496 214V216C499.866 216 503 212.866 503 209H501ZM496 169C498.761 169 501 171.239 501 174H503C503 170.134 499.866 167 496 167V169ZM355 167C351.134 167 348 170.134 348 174H350C350 171.239 352.239 169 355 169V167ZM389 191C389 198.18 383.18 204 376 204V206C384.284 206 391 199.284 391 191H389ZM376 204C368.82 204 363 198.18 363 191H361C361 199.284 367.716 206 376 206V204ZM363 191C363 183.82 368.82 178 376 178V176C367.716 176 361 182.716 361 191H363ZM376 178C383.18 178 389 183.82 389 191H391C391 182.716 384.284 176 376 176V178ZM400 183H491V181H400V183ZM490 182V188H492V182H490ZM491 187H400V189H491V187ZM401 188V182H399V188H401ZM400 196H491V194H400V196ZM490 195V201H492V195H490ZM491 200H400V202H491V200ZM401 201V195H399V201H401Z" fill="black" fill-opacity="0.05" mask="url(#path-51-inside-1_1_292)"/>
<circle cx="24.5" cy="132.5" r="24.5" fill="#CCECE6"/>
</g>
<defs>
<clipPath id="clip0_1_292">
<rect width="560" height="337" fill="white"/>
</clipPath>
</defs>
</svg>
