<svg width="346" height="101" viewBox="0 0 346 101" fill="none" xmlns="http://www.w3.org/2000/svg">
<path d="M35.8542 27.4891C35.8542 29.5977 34.1465 31.3071 32.0399 31.3071C29.9333 31.3071 28.2256 29.5977 28.2256 27.4891C28.2256 25.3806 29.9333 23.6712 32.0399 23.6712C34.1465 23.6712 35.8542 25.3806 35.8542 27.4891Z" fill="#36474B"/>
<path fill-rule="evenodd" clip-rule="evenodd" d="M37.8887 29.6197L62.8509 54.8141C63.3305 55.2983 64.1554 54.9583 64.1554 54.2764V29.0917C64.1554 29.05 64.1214 29.0163 64.0797 29.0163C59.024 29.0163 54.9255 24.9139 54.9255 19.8533C54.9255 14.7927 59.024 10.6902 64.0797 10.6902C69.1355 10.6902 73.2339 14.7927 73.2339 19.8533V74.0679C73.2339 74.1965 73.2287 74.3239 73.2183 74.4497C73.0264 76.7773 71.0964 78.6116 68.7304 78.6489C68.6835 78.6496 68.6382 78.6308 68.6049 78.5976L68.54 78.5328C68.4442 78.4371 68.5215 78.2677 68.6568 78.2677C70.974 78.2677 72.8525 76.3874 72.8525 74.0679C72.8525 71.7485 70.974 69.8682 68.6568 69.8682C66.3396 69.8682 64.4611 71.7485 64.4611 74.0679C64.4611 74.2065 64.288 74.286 64.1901 74.1881L37.8487 47.8786C37.3671 47.3976 36.5449 47.7404 36.547 48.4214L36.6147 70.6341C36.616 71.0549 36.9583 71.3921 37.3773 71.4265C42.0773 71.8133 45.7712 75.7541 45.7712 80.5584C45.7712 85.619 41.6728 89.7215 36.617 89.7215C31.5613 89.7215 27.4628 85.619 27.4628 80.5584L27.4687 28.4885C27.5913 30.9092 29.591 32.8342 32.0399 32.8342C33.9145 32.8342 35.5259 31.7062 36.2336 30.0912C36.5046 29.4728 37.4136 29.1402 37.8887 29.6197ZM36.617 73.3044C40.6195 73.3044 43.8641 76.5521 43.8641 80.5584C43.8641 84.5647 40.6195 87.8125 36.617 87.8125C32.6146 87.8125 29.3699 84.5647 29.3699 80.5584C29.3699 76.5521 32.6145 73.3044 36.617 73.3044ZM71.3268 19.8533C71.3268 15.847 68.0822 12.5992 64.0797 12.5992C60.0772 12.5992 56.8326 15.847 56.8326 19.8533C56.8326 23.8596 60.0772 27.1073 64.0797 27.1073C68.0822 27.1073 71.3268 23.8596 71.3268 19.8533Z" fill="#36474B"/>
<path d="M86.9889 81.1714C88.054 82.066 89.6474 81.9305 90.4868 80.8211C97.6774 71.317 101.286 59.5411 100.618 47.5835C99.9033 34.7853 94.3432 22.7406 85.0695 13.9009C75.7958 5.06113 63.5055 0.0907234 50.6999 0.00122942C37.8942 -0.0882529 25.5358 4.7099 16.1397 13.4192C6.74357 22.1284 1.01603 34.0942 0.122729 46.8813C-0.770566 59.6683 3.23752 72.3155 11.3312 82.249C19.425 92.1824 30.996 98.6555 43.6895 100.351C55.5492 101.935 67.5558 99.2367 77.5744 92.7895C78.7439 92.037 79.0011 90.4571 78.1918 89.3255C77.3825 88.1939 75.8132 87.9399 74.6396 88.686C65.6658 94.3905 54.9455 96.7698 44.3554 95.3554C32.9313 93.8296 22.5173 88.0038 15.233 79.0638C7.94861 70.1237 4.34133 58.7411 5.14529 47.2328C5.94926 35.7245 11.104 24.9552 19.5605 17.1169C28.017 9.27859 39.1396 4.96026 50.6647 5.04079C62.1898 5.12133 73.2511 9.59469 81.5974 17.5504C89.9437 25.5062 94.9478 36.3464 95.5912 47.8649C96.1875 58.5424 92.9951 69.0589 86.6245 77.5772C85.7913 78.6913 85.9239 80.2769 86.9889 81.1714Z" fill="#36474B"/>
<path d="M72.4711 74.0679C72.4711 76.1765 70.7634 77.8859 68.6568 77.8859C68.1682 77.8859 67.7011 77.7939 67.2718 77.6264C67.1538 77.5803 67.0186 77.6038 66.9291 77.6934L64.1145 80.5107C63.9236 80.7018 64.0589 81.0283 64.3291 81.0283H79.416C79.6183 81.0283 79.8124 81.1088 79.9554 81.252L83.3864 84.6862C83.6843 84.9844 83.6843 85.4679 83.3864 85.7661C83.0885 86.0643 82.6055 86.0643 82.3076 85.7661L79.1889 82.6445C79.132 82.5875 79.0548 82.5555 78.9743 82.5555H61.7556C61.4471 82.5555 61.1689 82.3695 61.0509 82.0841C60.9328 81.7988 60.998 81.4704 61.2162 81.252L65.6272 76.8368C65.7415 76.7224 65.7448 76.5392 65.6456 76.4116C65.1423 75.7647 64.8426 74.9514 64.8426 74.0679C64.8426 71.9594 66.5503 70.25 68.6568 70.25C70.7634 70.25 72.4711 71.9594 72.4711 74.0679Z" fill="#36474B"/>
<path d="M139.261 65.4635C137.741 65.4635 136.474 64.9412 135.46 63.8966C134.447 62.8519 133.94 61.218 133.94 58.9949C133.94 57.0128 134.327 54.9369 135.1 52.7673C135.9 50.5709 137.074 48.7227 138.621 47.2228C140.195 45.696 142.062 44.9326 144.222 44.9326C145.316 44.9326 146.129 45.1201 146.663 45.4951C147.196 45.8701 147.463 46.3656 147.463 46.9817C147.463 47.0164 147.513 47.0216 147.52 46.9876L147.869 45.2977C147.889 45.2021 147.973 45.1335 148.07 45.1335H152.553C153.125 45.1335 153.552 45.663 153.434 46.2255L150.784 58.794C150.677 59.1958 150.624 59.6243 150.624 60.0797C150.624 61.2314 151.17 61.8073 152.264 61.8073C153.011 61.8073 153.651 61.4591 154.184 60.7627C154.648 60.1866 155.029 59.4638 155.328 58.5944C155.442 58.2637 155.745 58.0306 156.093 58.0306C156.628 58.0306 157.005 58.5599 156.808 59.0599C155.891 61.3955 154.79 63.0211 153.504 63.9367C152.064 64.9546 150.61 65.4635 149.143 65.4635C148.023 65.4635 147.116 65.1555 146.423 64.5394C146.255 64.3778 146.104 64.1984 145.97 64.0013C145.503 63.314 144.282 62.9983 143.682 63.572C143.343 63.8971 142.989 64.1928 142.622 64.4591C141.688 65.1287 140.568 65.4635 139.261 65.4635ZM141.862 61.5663C142.529 61.5663 143.182 61.2582 143.822 60.6422C144.489 59.9993 144.942 59.1288 145.182 58.0306L147.083 49.0433C147.096 48.9816 147.104 48.9185 147.099 48.8555C147.077 48.5412 146.945 48.2381 146.703 47.946C146.436 47.5978 146.023 47.4237 145.462 47.4237C144.396 47.4237 143.435 48.0531 142.582 49.312C141.728 50.5441 141.062 52.0441 140.581 53.8119C140.101 55.553 139.861 57.0931 139.861 58.4324C139.861 59.7716 140.048 60.6288 140.421 61.0038C140.821 61.3788 141.302 61.5663 141.862 61.5663Z" fill="#36474B"/>
<path d="M159.48 65.4635C158.2 65.4635 157.16 65.0617 156.359 64.2582C155.586 63.4546 155.199 62.2493 155.199 60.6422C155.199 59.9725 155.306 59.102 155.519 58.0306L157.781 47.3932C157.852 47.0573 157.597 46.7406 157.255 46.7406C156.916 46.7406 156.662 46.4289 156.728 46.0949L156.791 45.7795C156.866 45.4039 157.199 45.1335 157.58 45.1335C157.962 45.1335 158.298 44.8661 158.379 44.4912L159.306 40.2084C159.386 39.8365 159.69 39.555 160.066 39.5041L164.09 38.9579C164.709 38.874 165.223 39.4319 165.091 40.0446L164.236 44.0386C164.115 44.602 164.542 45.1335 165.116 45.1335H165.425C165.93 45.1335 166.309 45.5974 166.21 46.0947C166.135 46.4703 165.807 46.7406 165.425 46.7406H164.41C163.985 46.7406 163.618 47.039 163.529 47.4565L161.12 58.794C161.014 59.1958 160.96 59.6243 160.96 60.0797C160.96 60.6154 161.08 61.0038 161.32 61.2448C161.587 61.4591 162.014 61.5663 162.601 61.5663C163.374 61.5663 164.094 61.2448 164.761 60.602C165.304 60.0568 165.723 59.3873 166.019 58.5935C166.141 58.2654 166.442 58.0306 166.791 58.0306C167.326 58.0306 167.702 58.5593 167.504 59.058C166.578 61.3946 165.437 63.0209 164.081 63.9367C162.534 64.9546 161 65.4635 159.48 65.4635Z" fill="#36474B"/>
<path d="M172.867 42.9639C171.987 42.9639 171.24 42.6559 170.626 42.0398C170.013 41.4238 169.706 40.6738 169.706 39.7899C169.706 38.906 170.013 38.156 170.626 37.5399C171.24 36.8971 171.987 36.5756 172.867 36.5756C173.747 36.5756 174.494 36.8971 175.107 37.5399C175.747 38.156 176.067 38.906 176.067 39.7899C176.067 40.6738 175.747 41.4238 175.107 42.0398C174.494 42.6559 173.747 42.9639 172.867 42.9639ZM170.146 65.4635C168.866 65.4635 167.826 65.0617 167.026 64.2582C166.252 63.4546 165.865 62.2493 165.865 60.6422C165.865 59.9725 165.972 59.102 166.185 58.0306L168.755 45.8506C168.843 45.4326 169.21 45.1335 169.636 45.1335H173.556C174.128 45.1335 174.556 45.663 174.437 46.2255L171.787 58.794C171.68 59.1958 171.627 59.6243 171.627 60.0797C171.627 60.6154 171.747 61.0038 171.987 61.2448C172.253 61.4591 172.68 61.5663 173.267 61.5663C174.04 61.5663 174.761 61.2448 175.427 60.602C175.97 60.0568 176.389 59.3873 176.685 58.5935C176.807 58.2654 177.109 58.0306 177.457 58.0306C177.992 58.0306 178.368 58.5593 178.17 59.058C177.245 61.3946 176.104 63.0209 174.747 63.9367C173.2 64.9546 171.667 65.4635 170.146 65.4635Z" fill="#36474B"/>
<path d="M182.693 65.3831C180.719 65.3831 179.159 64.8742 178.012 63.8564C176.865 62.8386 176.292 61.2314 176.292 59.035C176.292 57.2137 176.665 55.1914 177.412 52.9682C178.159 50.745 179.359 48.8299 181.013 47.2228C182.666 45.5889 184.747 44.7719 187.254 44.7719C190.668 44.7719 192.375 46.9147 192.375 51.2004C192.375 51.2244 192.39 51.2458 192.413 51.2512C192.498 51.2709 192.632 51.2807 192.815 51.2807C193.695 51.2807 194.709 51.0531 195.856 50.5977C196.741 50.2256 197.562 49.7977 198.32 49.3139C198.652 49.1022 199.102 49.2491 199.226 49.6236C199.294 49.8277 199.246 50.054 199.093 50.2043C198.354 50.9282 197.422 51.5549 196.296 52.0843C195.263 52.5576 194.146 52.9172 192.943 53.1629C192.54 53.2454 192.232 53.5781 192.184 53.9887C191.933 56.1364 191.41 58.0328 190.615 59.6779C189.734 61.4993 188.601 62.9055 187.214 63.8966C185.827 64.8876 184.32 65.3831 182.693 65.3831ZM184.293 61.7671C184.933 61.7671 185.574 61.4055 186.214 60.6823C186.854 59.9324 187.414 58.9279 187.894 57.669C188.288 56.6141 188.592 55.4691 188.806 54.2339C188.887 53.7698 188.532 53.3618 188.226 53.0048C187.978 52.7157 187.854 52.2883 187.854 51.7227C187.854 50.8997 188.086 50.2873 188.551 49.8855C188.841 49.6346 189.085 49.2951 189.036 48.9139C188.965 48.3715 188.851 47.9819 188.694 47.7451C188.481 47.3969 188.107 47.2228 187.574 47.2228C186.694 47.2228 185.84 47.8656 185.013 49.1513C184.187 50.437 183.52 51.9771 183.013 53.7718C182.506 55.5664 182.253 57.1467 182.253 58.5127C182.253 59.7984 182.4 60.6689 182.693 61.1243C182.986 61.5529 183.52 61.7671 184.293 61.7671Z" fill="#36474B"/>
<path d="M208.196 65.4635C206.783 65.4635 205.756 65.0349 205.116 64.1778C204.476 63.3207 204.155 62.2359 204.155 60.9234C204.155 60.3609 204.222 59.7315 204.356 59.035C204.489 58.3118 204.622 57.6154 204.756 56.9458C204.916 56.2762 205.022 55.8476 205.076 55.6601C205.289 54.7226 205.489 53.7985 205.676 52.8878C205.862 51.9771 205.956 51.2405 205.956 50.6781C205.956 49.312 205.476 48.629 204.516 48.629C203.822 48.629 203.209 48.9772 202.675 49.6736C202.142 50.3432 201.715 51.2272 201.395 52.3253L198.826 64.5053C198.737 64.9234 198.37 65.2224 197.944 65.2224H194.025C193.452 65.2224 193.025 64.6928 193.144 64.1303L197.003 45.8505C197.091 45.4325 197.458 45.1335 197.884 45.1335H202.389C202.66 45.1335 202.862 45.3839 202.806 45.6501C202.716 46.0791 203.3 46.3968 203.652 46.137C204.702 45.3609 205.871 44.9728 207.156 44.9728C208.516 44.9728 209.597 45.3478 210.397 46.0978C211.197 46.8478 211.597 47.9861 211.597 49.5129C211.597 50.2897 211.504 51.1602 211.317 52.1245C211.13 53.0619 210.864 54.2137 210.517 55.5798C210.303 56.4101 210.103 57.227 209.917 58.0306C209.757 58.8074 209.677 59.4234 209.677 59.8788C209.677 60.4145 209.797 60.8297 210.037 61.1243C210.277 61.4189 210.69 61.5663 211.277 61.5663C211.812 61.5663 212.479 62.1466 212.301 62.6533C212.045 63.3811 211.65 63.9697 211.117 64.4189C210.317 65.1153 209.343 65.4635 208.196 65.4635Z" fill="#36474B"/>
<path d="M230.797 65.8653C227.783 65.8653 225.569 65.1019 224.156 63.5751C222.742 62.0484 222.035 59.5172 222.035 55.9815C222.035 53.1691 222.502 50.1424 223.435 46.9013C224.396 43.6603 225.916 40.8881 227.996 38.5845C230.103 36.2542 232.771 35.0891 235.998 35.0891C237.998 35.0891 239.612 35.531 240.839 36.4149C242.066 37.2988 242.679 38.6515 242.679 40.4729C242.679 41.6247 242.453 42.5353 241.999 43.205C241.546 43.8478 240.839 44.1692 239.879 44.1692C239.34 44.1692 238.864 44.0597 238.452 43.8405C237.943 43.5705 238.085 42.8503 238.435 42.3918C238.59 42.188 238.738 41.9502 238.879 41.6782C239.252 40.955 239.439 40.205 239.439 39.4283C239.439 38.7051 239.239 38.1158 238.839 37.6604C238.465 37.2051 237.852 36.9774 236.998 36.9774C235.585 36.9774 234.238 37.9551 232.957 39.9104C231.677 41.8389 230.637 44.2764 229.837 47.2228C229.063 50.1691 228.676 53.0084 228.676 55.7405C228.676 57.7761 229.023 59.3297 229.717 60.4011C230.41 61.4725 231.664 62.0082 233.477 62.0082C235.051 62.0082 236.505 61.66 237.838 60.9636C239.046 60.333 240.1 59.461 241.002 58.3473C241.168 58.1414 241.45 58.0651 241.693 58.171C241.975 58.2943 242.11 58.6212 241.984 58.9031C241.326 60.3655 240.411 61.6014 239.239 62.6109C237.932 63.7359 236.531 64.5662 235.038 65.1019C233.544 65.6108 232.13 65.8653 230.797 65.8653Z" fill="#36474B"/>
<path d="M243.731 45.8505C243.819 45.4325 244.187 45.1335 244.612 45.1335H248.908C249.287 45.1335 249.57 45.4837 249.493 45.8564C249.375 46.4213 250.055 46.8263 250.517 46.4824C250.885 46.2078 251.234 45.9725 251.564 45.7764C252.311 45.3478 253.111 45.1335 253.964 45.1335C254.818 45.1335 255.485 45.4282 255.965 46.0174C256.472 46.6067 256.725 47.3165 256.725 48.1469C256.725 48.9236 256.472 49.6066 255.965 50.1959C255.458 50.7852 254.751 51.0798 253.844 51.0798C253.258 51.0798 252.858 50.9459 252.644 50.6781C252.457 50.3834 252.311 49.9682 252.204 49.4325C252.124 49.0843 252.044 48.8299 251.964 48.6692C251.884 48.5085 251.737 48.4281 251.524 48.4281C250.964 48.4281 250.484 48.5486 250.084 48.7897C249.755 48.9783 249.334 49.3016 248.819 49.7598C248.678 49.8855 248.582 50.0546 248.544 50.24L245.553 64.5042C245.466 64.9228 245.098 65.2224 244.672 65.2224H240.753C240.181 65.2224 239.753 64.6928 239.872 64.1303L243.731 45.8505Z" fill="#36474B"/>
<path d="M261.925 65.4635C259.951 65.4635 258.418 64.9546 257.324 63.9367C256.231 62.8921 255.684 61.2716 255.684 59.0752C255.684 57.227 256.044 55.1914 256.764 52.9682C257.484 50.745 258.658 48.8299 260.285 47.2228C261.912 45.5889 263.979 44.7719 266.486 44.7719C269.42 44.7719 270.887 46.0576 270.887 48.629C270.887 50.129 270.46 51.5084 269.607 52.7673C268.753 54.0262 267.62 55.0441 266.206 55.8208C265.026 56.4471 263.78 56.8493 262.469 57.0273C262.022 57.088 261.661 57.444 261.636 57.8965C261.616 58.2737 261.605 58.5461 261.605 58.7136C261.605 60.0261 261.832 60.9234 262.285 61.4055C262.739 61.8609 263.472 62.0886 264.486 62.0886C265.926 62.0886 267.153 61.7537 268.166 61.0841C269.154 60.4481 270.226 59.4981 271.383 58.234C271.501 58.1052 271.667 58.0306 271.841 58.0306C272.319 58.0306 272.612 58.5536 272.348 58.9543C269.493 63.2938 266.019 65.4635 261.925 65.4635ZM262.244 54.0513C262.108 54.6217 262.573 55.1491 263.133 54.9817C263.71 54.8089 264.268 54.5261 264.806 54.1334C265.713 53.4905 266.433 52.6736 266.966 51.6825C267.526 50.6914 267.806 49.6468 267.806 48.5486C267.806 47.4504 267.473 46.9013 266.806 46.9013C265.846 46.9013 264.899 47.7451 263.966 49.4325C263.221 50.8185 262.647 52.3581 262.244 54.0513Z" fill="#36474B"/>
<path d="M276.36 65.4635C274.839 65.4635 273.572 64.9412 272.559 63.8966C271.545 62.8519 271.039 61.218 271.039 58.9949C271.039 57.0128 271.425 54.9369 272.199 52.7673C272.999 50.5709 274.173 48.7227 275.72 47.2228C277.293 45.696 279.16 44.9326 281.321 44.9326C282.414 44.9326 283.228 45.1201 283.761 45.4951C284.295 45.8701 284.561 46.3656 284.561 46.9817C284.561 47.0164 284.611 47.0216 284.618 46.9876L284.968 45.2977C284.987 45.2021 285.071 45.1335 285.168 45.1335H289.651C290.224 45.1335 290.651 45.663 290.532 46.2255L287.882 58.794C287.775 59.1958 287.722 59.6243 287.722 60.0797C287.722 61.2314 288.269 61.8073 289.362 61.8073C290.109 61.8073 290.749 61.4591 291.283 60.7627C291.746 60.1866 292.127 59.4638 292.426 58.5944C292.54 58.2637 292.843 58.0306 293.191 58.0306C293.727 58.0306 294.103 58.5599 293.907 59.0599C292.99 61.3955 291.888 63.0211 290.603 63.9367C289.162 64.9546 287.709 65.4635 286.242 65.4635C285.121 65.4635 284.215 65.1555 283.521 64.5394C283.354 64.3778 283.203 64.1984 283.069 64.0013C282.602 63.314 281.381 62.9983 280.781 63.572C280.441 63.8971 280.088 64.1928 279.72 64.4591C278.787 65.1287 277.667 65.4635 276.36 65.4635ZM278.96 61.5663C279.627 61.5663 280.28 61.2582 280.921 60.6422C281.587 59.9993 282.041 59.1288 282.281 58.0306L284.182 49.0433C284.195 48.9816 284.202 48.9185 284.198 48.8555C284.176 48.5412 284.044 48.2381 283.801 47.946C283.534 47.5978 283.121 47.4237 282.561 47.4237C281.494 47.4237 280.534 48.0531 279.68 49.312C278.827 50.5441 278.16 52.0441 277.68 53.8119C277.2 55.553 276.96 57.0931 276.96 58.4324C276.96 59.7716 277.147 60.6288 277.52 61.0038C277.92 61.3788 278.4 61.5663 278.96 61.5663Z" fill="#36474B"/>
<path d="M296.579 65.4635C295.298 65.4635 294.258 65.0617 293.458 64.2582C292.684 63.4546 292.298 62.2493 292.298 60.6422C292.298 59.9725 292.404 59.102 292.618 58.0306L294.879 47.3932C294.951 47.0573 294.696 46.7406 294.354 46.7406C294.014 46.7406 293.76 46.4289 293.827 46.0949L293.889 45.7795C293.964 45.4039 294.297 45.1335 294.679 45.1335C295.061 45.1335 295.396 44.8661 295.477 44.4912L296.404 40.2084C296.485 39.8365 296.789 39.555 297.164 39.5041L301.189 38.9579C301.807 38.874 302.321 39.4319 302.19 40.0446L301.334 44.0386C301.213 44.602 301.641 45.1335 302.215 45.1335H302.524C303.029 45.1335 303.408 45.5974 303.309 46.0947C303.234 46.4703 302.905 46.7406 302.524 46.7406H301.508C301.083 46.7406 300.716 47.039 300.627 47.4565L298.219 58.794C298.112 59.1958 298.059 59.6243 298.059 60.0797C298.059 60.6154 298.179 61.0038 298.419 61.2448C298.686 61.4591 299.112 61.5663 299.699 61.5663C300.473 61.5663 301.193 61.2448 301.86 60.602C302.403 60.0568 302.822 59.3873 303.117 58.5935C303.239 58.2654 303.541 58.0306 303.89 58.0306C304.424 58.0306 304.8 58.5593 304.603 59.058C303.677 61.3946 302.536 63.0209 301.179 63.9367C299.632 64.9546 298.099 65.4635 296.579 65.4635Z" fill="#36474B"/>
<path d="M309.965 42.9639C309.085 42.9639 308.338 42.6559 307.725 42.0398C307.111 41.4238 306.805 40.6738 306.805 39.7899C306.805 38.906 307.111 38.156 307.725 37.5399C308.338 36.8971 309.085 36.5756 309.965 36.5756C310.846 36.5756 311.592 36.8971 312.206 37.5399C312.846 38.156 313.166 38.906 313.166 39.7899C313.166 40.6738 312.846 41.4238 312.206 42.0398C311.592 42.6559 310.846 42.9639 309.965 42.9639ZM307.245 65.4635C305.965 65.4635 304.924 65.0617 304.124 64.2582C303.351 63.4546 302.964 62.2493 302.964 60.6422C302.964 59.9725 303.071 59.102 303.284 58.0306L305.853 45.8506C305.941 45.4326 306.309 45.1335 306.734 45.1335H310.654C311.227 45.1335 311.654 45.663 311.535 46.2255L308.885 58.794C308.778 59.1958 308.725 59.6243 308.725 60.0797C308.725 60.6154 308.845 61.0038 309.085 61.2448C309.352 61.4591 309.779 61.5663 310.365 61.5663C311.139 61.5663 311.859 61.2448 312.526 60.602C313.069 60.0568 313.488 59.3873 313.783 58.5935C313.905 58.2654 314.207 58.0306 314.556 58.0306C315.091 58.0306 315.466 58.5593 315.269 59.058C314.343 61.3946 313.202 63.0209 311.846 63.9367C310.299 64.9546 308.765 65.4635 307.245 65.4635Z" fill="#36474B"/>
<path d="M318.511 65.4635C316.964 65.4635 315.751 65.0751 314.87 64.2983C314.017 63.4948 313.59 62.3028 313.59 60.7225C313.59 60.0797 313.657 59.4368 313.79 58.794L316.52 45.8507C316.608 45.4326 316.975 45.1335 317.401 45.1335H321.32C321.893 45.1335 322.32 45.663 322.202 46.2255L319.551 58.794C319.418 59.4636 319.351 59.9457 319.351 60.2404C319.351 61.1243 319.805 61.5663 320.712 61.5663C321.939 61.5663 323.072 60.7895 324.112 59.2359C325.179 57.6824 326.033 55.8342 326.673 53.6914C327.228 51.8322 327.543 50.1948 327.616 48.7792C327.623 48.6452 327.242 48.433 327.113 48.4683C326.82 48.5218 326.566 48.5486 326.353 48.5486C325.899 48.5486 325.539 48.3343 325.273 47.9058C325.033 47.4772 324.912 47.0085 324.912 46.4996C324.912 45.8567 325.113 45.3344 325.513 44.9326C325.939 44.5308 326.566 44.33 327.393 44.33C328.273 44.33 328.913 44.6648 329.313 45.3344C329.713 45.9772 329.913 46.8076 329.913 47.8254C329.913 50.2361 329.5 52.8209 328.673 55.5798C327.846 58.3118 326.579 60.6422 324.872 62.5707C323.165 64.4992 321.045 65.4635 318.511 65.4635Z" fill="#36474B"/>
<path d="M336.157 65.4635C334.21 65.4635 332.69 64.9546 331.596 63.9367C330.503 62.8921 329.956 61.2716 329.956 59.0752C329.956 57.227 330.316 55.1914 331.036 52.9682C331.756 50.745 332.93 48.8299 334.557 47.2228C336.184 45.5889 338.251 44.7719 340.758 44.7719C343.692 44.7719 345.159 46.0576 345.159 48.629C345.159 50.129 344.732 51.5084 343.879 52.7673C343.025 54.0262 341.892 55.0441 340.478 55.8208C339.292 56.4501 338.04 56.8531 336.723 57.0298C336.283 57.0887 335.924 57.4326 335.895 57.8766C335.883 58.0644 335.877 58.2095 335.877 58.3118C335.877 60.535 336.704 61.6466 338.358 61.6466C339.105 61.6466 339.905 61.4457 340.758 61.0439C340.813 61.0183 340.867 60.9923 340.92 60.9658C341.688 60.5875 342.674 61.2326 342.298 62.0042C341.174 64.3104 339.127 65.4635 336.157 65.4635ZM336.503 54.0589C336.355 54.6255 336.805 55.166 337.368 55.0128C337.964 54.8508 338.534 54.5711 339.078 54.1735C339.985 53.5307 340.705 52.7137 341.238 51.7227C341.798 50.7048 342.079 49.6468 342.079 48.5486C342.079 47.4504 341.745 46.9013 341.078 46.9013C340.145 46.9013 339.211 47.7585 338.278 49.4727C337.534 50.8572 336.942 52.3859 336.503 54.0589Z" fill="#36474B"/>
<path d="M115.978 38.3599C114.87 38.97 113.977 39.7681 113.297 40.7541C112.364 42.1202 111.897 43.7809 111.897 45.7362L111.893 45.8958C111.893 46.982 111.016 47.8626 109.934 47.8626C108.853 47.8626 107.976 46.982 107.976 45.8958L107.976 45.4951C107.976 43.6201 108.523 41.8791 109.616 40.272C110.71 38.6381 112.19 37.339 114.057 36.3747C115.924 35.4105 117.951 34.9283 120.138 34.9283C120.752 34.9283 121.285 34.9685 121.739 35.0489C122.068 35.1073 122.433 35.201 122.833 35.3301C123.125 35.4245 123.34 35.6729 123.407 35.9738L127.184 52.8856C127.397 53.8361 128.749 53.8244 128.945 52.8704L132.433 35.8913C132.519 35.471 132.888 35.1694 133.315 35.1694H135.344C135.918 35.1694 136.346 35.7026 136.224 36.2666L130.591 62.2218C130.253 63.8139 128.844 65.0078 127.158 65.0078C125.502 65.0078 124.113 63.8559 123.744 62.3064L123.736 62.2719L120.663 49.0932C120.446 48.16 119.122 48.1625 118.908 49.0966L115.378 64.5205C115.284 64.9313 114.92 65.2224 114.5 65.2224H112.538C111.962 65.2224 111.534 64.6876 111.658 64.1231L117.109 39.2901C117.261 38.5971 116.597 38.0186 115.978 38.3599Z" fill="#36474B"/>
</svg>
